<svg width="469" height="535" viewBox="0 0 469 535" fill="none" xmlns="http://www.w3.org/2000/svg">
<g filter="url(#filter0_d_66_2)">
<mask id="path-1-inside-1_66_2" fill="white">
<rect x="54" width="411" height="527" rx="10"/>
</mask>
<rect x="54" width="411" height="527" rx="10" fill="#FFB3C6" stroke="white" stroke-width="24" mask="url(#path-1-inside-1_66_2)"/>
<path d="M57 6H14C11.7909 6 10 7.79086 10 10V517C10 519.209 11.7909 521 14 521H57C59.2091 521 61 519.209 61 517V10C61 7.79087 59.2091 6 57 6Z" fill="#FFB3C6" stroke="white" stroke-width="12"/>
<path d="M67 10H454V208L67 206V10Z" fill="#B9164A"/>
<path d="M262.216 471C-53.6995 286.884 52.1059 -30.7156 262.216 127.317C382.28 -10.7698 635.163 193.292 262.216 471Z" fill="white"/>
<path d="M261.869 443C9.93587 296.372 94.3123 43.4378 261.869 169.294C357.615 59.3225 559.282 221.836 261.869 443Z" fill="#B9164A"/>
<path d="M156.752 41.744C158.032 39.824 158.672 38.032 158.672 36.368C158.672 34.704 158.203 33.3813 157.264 32.4C156.325 31.4187 155.088 30.928 153.552 30.928C152.016 30.928 150.779 31.312 149.84 32.08C148.901 32.8053 148.432 33.9787 148.432 35.6C148.432 37.1787 149.541 40.0373 151.76 44.176C153.979 48.3147 155.387 50.9813 155.984 52.176C157.605 55.4187 158.416 58.5547 158.416 61.584C158.416 65.3813 157.029 68.4747 154.256 70.864C151.525 73.2107 148.283 74.384 144.528 74.384C140.816 74.384 137.893 73.232 135.76 70.928C133.627 68.5813 132.56 65.8507 132.56 62.736C132.56 56.976 136.123 52.2187 143.248 48.464C140.347 42.7467 138.896 38.7573 138.896 36.496C138.896 33.3387 140.155 30.672 142.672 28.496C145.232 26.2773 148.347 25.168 152.016 25.168C155.728 25.168 158.565 26.1067 160.528 27.984C162.491 29.8613 163.472 32.2507 163.472 35.152C163.472 37.072 162.832 39.2693 161.552 41.744H156.752ZM139.984 66.704C141.136 67.9413 142.523 68.56 144.144 68.56C145.808 68.56 147.088 68.0907 147.984 67.152C148.923 66.1707 149.392 64.7413 149.392 62.864C149.392 61.1573 148.731 59.0667 147.408 56.592C147.237 56.2507 146.917 55.632 146.448 54.736C145.979 53.7973 145.637 53.136 145.424 52.752C140.645 55.2267 138.256 58.3413 138.256 62.096C138.256 64.016 138.832 65.552 139.984 66.704ZM182.226 66.368C182.226 68.672 183.202 69.824 185.154 69.824C185.218 69.824 185.266 69.824 185.298 69.824C186.194 69.824 186.994 69.344 187.698 68.384C188.402 67.424 188.93 66.224 189.282 64.784C190.05 61.84 190.434 59.168 190.434 56.768H190.002C188.658 56.768 187.618 56.464 186.882 55.856C186.114 55.152 185.73 54.304 185.73 53.312C185.73 52.32 186.034 51.52 186.642 50.912C187.378 50.24 188.29 49.904 189.378 49.904C191.746 49.904 193.346 51.12 194.178 53.552C196.418 53.008 198.786 52.256 201.282 51.296V54.032C198.914 54.928 196.706 55.616 194.658 56.096C194.69 56.352 194.706 56.72 194.706 57.2C194.578 63.824 193.026 68.624 190.05 71.6C188.29 73.36 186.002 74.24 183.186 74.24C180.402 74.24 178.322 73.056 176.946 70.688C175.378 73.088 172.978 74.288 169.746 74.288C167.826 74.288 166.242 73.616 164.994 72.272C163.778 70.896 163.17 69.28 163.17 67.424C163.17 67.104 163.186 66.72 163.218 66.272C163.89 60.704 164.45 55.776 164.898 51.488C166.05 51.104 167.058 50.912 167.922 50.912C170.194 50.912 171.33 51.696 171.33 53.264C171.33 53.872 171.09 55.968 170.61 59.552C170.002 64.064 169.698 66.608 169.698 67.184C169.698 67.728 169.906 68.272 170.322 68.816C170.77 69.36 171.394 69.632 172.194 69.632C173.026 69.632 173.762 69.264 174.402 68.528C175.042 67.792 175.506 66.896 175.794 65.84L177.474 51.488C178.498 51.104 179.586 50.912 180.738 50.912C182.818 50.912 183.858 51.696 183.858 53.264C183.858 53.84 183.634 55.712 183.186 58.88C182.546 63.36 182.226 65.856 182.226 66.368ZM188.466 53.312C188.466 53.856 188.93 54.128 189.858 54.128C189.954 54.128 190.05 54.128 190.146 54.128C189.922 53.264 189.586 52.832 189.138 52.832C188.69 52.832 188.466 52.992 188.466 53.312ZM206.262 63.248C208.246 62.832 209.718 62.032 210.678 60.848C211.67 59.664 212.166 58.528 212.166 57.44C212.166 56.32 211.862 55.568 211.254 55.184C210.678 54.768 210.038 54.56 209.334 54.56C207.83 54.56 206.502 55.408 205.35 57.104C204.23 58.768 203.67 60.768 203.67 63.104C203.67 65.408 204.214 67.136 205.302 68.288C206.422 69.408 207.798 69.968 209.43 69.968C211.83 69.968 214.134 69.136 216.342 67.472C218.55 65.808 220.342 63.632 221.718 60.944C222.422 61.616 223.062 62.448 223.638 63.44C222.582 65.84 220.71 68.192 218.022 70.496C216.678 71.616 215.078 72.528 213.222 73.232C211.398 73.936 209.51 74.288 207.558 74.288C204.358 74.288 201.83 73.312 199.974 71.36C197.99 69.248 196.998 66.544 196.998 63.248C196.998 59.952 198.23 57.072 200.694 54.608C203.19 52.144 206.166 50.912 209.622 50.912C212.086 50.912 214.086 51.456 215.622 52.544C217.158 53.6 217.942 55.04 217.974 56.864C217.974 59.328 216.982 61.328 214.998 62.864C213.046 64.4 210.358 65.472 206.934 66.08L206.262 63.248ZM228.621 63.248C230.605 62.832 232.077 62.032 233.037 60.848C234.029 59.664 234.525 58.528 234.525 57.44C234.525 56.32 234.221 55.568 233.613 55.184C233.037 54.768 232.397 54.56 231.693 54.56C230.189 54.56 228.861 55.408 227.709 57.104C226.589 58.768 226.029 60.768 226.029 63.104C226.029 65.408 226.573 67.136 227.661 68.288C228.781 69.408 230.157 69.968 231.789 69.968C234.189 69.968 236.493 69.136 238.701 67.472C240.909 65.808 242.701 63.632 244.077 60.944C244.781 61.616 245.421 62.448 245.997 63.44C244.941 65.84 243.069 68.192 240.381 70.496C239.037 71.616 237.437 72.528 235.581 73.232C233.757 73.936 231.869 74.288 229.917 74.288C226.717 74.288 224.189 73.312 222.333 71.36C220.349 69.248 219.357 66.544 219.357 63.248C219.357 59.952 220.589 57.072 223.053 54.608C225.549 52.144 228.525 50.912 231.981 50.912C234.445 50.912 236.445 51.456 237.981 52.544C239.517 53.6 240.301 55.04 240.333 56.864C240.333 59.328 239.341 61.328 237.357 62.864C235.405 64.4 232.717 65.472 229.293 66.08L228.621 63.248ZM252.901 40.592C252.901 40.784 252.469 44.224 251.605 50.912H258.661V54.608H251.125L250.981 55.808C254.725 58.944 256.597 62.368 256.597 66.08C256.597 68.992 255.845 71.088 254.341 72.368C252.869 73.648 251.093 74.288 249.013 74.288C246.933 74.288 245.413 73.744 244.453 72.656C243.493 71.536 243.013 70.192 243.013 68.624C243.013 68.272 243.045 67.888 243.109 67.472L244.597 54.704L244.405 54.608H240.517C240.485 54.288 240.469 53.776 240.469 53.072C240.469 52.336 240.613 51.616 240.901 50.912H245.029L246.565 37.856C247.237 37.6 248.133 37.472 249.253 37.472C251.685 37.472 252.901 38.512 252.901 40.592ZM253.381 66.032C253.381 63.824 252.421 61.648 250.501 59.504C249.925 64.272 249.637 67.024 249.637 67.76C249.637 69.2 250.101 69.92 251.029 69.92C251.701 69.92 252.261 69.616 252.709 69.008C253.157 68.368 253.381 67.376 253.381 66.032ZM271.657 68.528L272.809 57.92C272.809 57.056 272.585 56.336 272.137 55.76C271.689 55.184 270.969 54.896 269.977 54.896C268.985 54.896 268.137 55.296 267.433 56.096C266.761 56.864 266.265 57.888 265.945 59.168C265.721 60.992 265.385 63.664 264.937 67.184C264.489 70.672 264.201 72.944 264.073 74H257.689C259.993 54.384 261.385 42.336 261.865 37.856C262.537 37.6 263.449 37.472 264.601 37.472C267.097 37.472 268.345 38.208 268.345 39.68V39.968C267.801 44.992 267.225 49.408 266.617 53.216C268.313 51.68 270.233 50.912 272.377 50.912C274.521 50.912 276.217 51.456 277.465 52.544C278.713 53.632 279.337 55.008 279.337 56.672C279.337 57.12 279.241 57.952 279.049 59.168C278.313 63.968 277.945 66.784 277.945 67.616C277.945 69.12 278.441 69.872 279.433 69.872C280.265 69.872 281.145 69.328 282.073 68.24C283.033 67.12 283.801 65.408 284.377 63.104C285.465 64.256 286.121 65.168 286.345 65.84C284.681 71.408 281.737 74.192 277.513 74.192C275.529 74.192 274.057 73.584 273.097 72.368C272.137 71.152 271.657 69.872 271.657 68.528ZM291.34 63.248C293.324 62.832 294.796 62.032 295.756 60.848C296.748 59.664 297.244 58.528 297.244 57.44C297.244 56.32 296.94 55.568 296.332 55.184C295.756 54.768 295.116 54.56 294.412 54.56C292.908 54.56 291.58 55.408 290.428 57.104C289.308 58.768 288.748 60.768 288.748 63.104C288.748 65.408 289.292 67.136 290.38 68.288C291.5 69.408 292.876 69.968 294.508 69.968C296.908 69.968 299.212 69.136 301.42 67.472C303.628 65.808 305.42 63.632 306.796 60.944C307.5 61.616 308.14 62.448 308.716 63.44C307.66 65.84 305.788 68.192 303.1 70.496C301.756 71.616 300.156 72.528 298.3 73.232C296.476 73.936 294.588 74.288 292.636 74.288C289.436 74.288 286.908 73.312 285.052 71.36C283.068 69.248 282.076 66.544 282.076 63.248C282.076 59.952 283.308 57.072 285.772 54.608C288.268 52.144 291.244 50.912 294.7 50.912C297.164 50.912 299.164 51.456 300.7 52.544C302.236 53.6 303.02 55.04 303.052 56.864C303.052 59.328 302.06 61.328 300.076 62.864C298.124 64.4 295.436 65.472 292.012 66.08L291.34 63.248ZM326.132 74.24C323.188 74.24 321.236 73.216 320.276 71.168C318.612 73.248 316.468 74.288 313.844 74.288C311.252 74.288 309.06 73.408 307.268 71.648C305.508 69.888 304.628 67.568 304.628 64.688C304.628 60.496 305.86 57.152 308.324 54.656C310.788 52.16 313.908 50.912 317.684 50.912C317.78 50.912 317.876 50.912 317.972 50.912C319.572 50.912 321.044 51.184 322.388 51.728C323.252 51.184 324.292 50.912 325.508 50.912C326.756 50.912 327.652 51.072 328.196 51.392C327.908 53.76 327.604 56.096 327.284 58.4C326.964 60.672 326.74 62.288 326.612 63.248C326.324 65.424 326.18 66.992 326.18 67.952C326.18 69.232 326.692 69.872 327.716 69.872C328.516 69.872 329.364 69.344 330.26 68.288C331.156 67.2 331.94 65.504 332.612 63.2C333.54 64.032 334.18 64.96 334.532 65.984C333.604 69.024 332.356 71.168 330.788 72.416C329.22 73.632 327.668 74.24 326.132 74.24ZM318.404 54.656C316.356 54.656 314.724 55.44 313.508 57.008C312.324 58.544 311.62 60.848 311.396 63.92C311.364 64.208 311.348 64.48 311.348 64.736C311.348 66.304 311.716 67.552 312.452 68.48C313.22 69.408 314.196 69.872 315.38 69.872C317.396 69.872 318.916 68.448 319.94 65.6L321.092 55.232C320.164 54.848 319.268 54.656 318.404 54.656ZM345.228 57.2C345.228 55.792 344.572 55.088 343.26 55.088C341.98 55.088 340.956 55.92 340.188 57.584C343.644 60.304 345.372 63.36 345.372 66.752C345.372 69.216 344.684 71.088 343.308 72.368C341.932 73.648 340.204 74.288 338.124 74.288C336.044 74.288 334.524 73.648 333.564 72.368C332.604 71.056 332.124 69.408 332.124 67.424C332.124 66.816 332.14 66.368 332.172 66.08L333.852 51.44C335.004 51.088 336.172 50.912 337.356 50.912C339.308 50.912 340.284 51.632 340.284 53.072V53.168C341.564 51.664 343.196 50.912 345.18 50.912C346.62 50.912 347.74 51.248 348.54 51.92C349.34 52.56 349.74 53.424 349.74 54.512C349.74 55.6 349.324 56.496 348.492 57.2C347.692 57.872 346.636 58.208 345.324 58.208C345.26 58.208 345.196 58.208 345.132 58.208C345.196 57.856 345.228 57.52 345.228 57.2ZM342.252 66.512C342.252 64.656 341.292 62.8 339.372 60.944C338.796 65.552 338.508 67.872 338.508 67.904C338.508 69.248 339.052 69.92 340.14 69.92C341.548 69.92 342.252 68.784 342.252 66.512ZM361.698 40.592C361.698 40.784 361.266 44.224 360.402 50.912H367.458V54.608H359.922L359.778 55.808C363.522 58.944 365.394 62.368 365.394 66.08C365.394 68.992 364.642 71.088 363.138 72.368C361.666 73.648 359.89 74.288 357.81 74.288C355.73 74.288 354.21 73.744 353.25 72.656C352.29 71.536 351.81 70.192 351.81 68.624C351.81 68.272 351.842 67.888 351.906 67.472L353.394 54.704L353.202 54.608H349.314C349.282 54.288 349.266 53.776 349.266 53.072C349.266 52.336 349.41 51.616 349.698 50.912H353.826L355.362 37.856C356.034 37.6 356.93 37.472 358.05 37.472C360.482 37.472 361.698 38.512 361.698 40.592ZM362.178 66.032C362.178 63.824 361.218 61.648 359.298 59.504C358.722 64.272 358.434 67.024 358.434 67.76C358.434 69.2 358.898 69.92 359.826 69.92C360.498 69.92 361.058 69.616 361.506 69.008C361.954 68.368 362.178 67.376 362.178 66.032ZM387.414 59.312C389.942 61.168 391.206 63.36 391.206 65.888C391.206 68.416 390.214 70.448 388.23 71.984C386.246 73.52 383.75 74.288 380.742 74.288C378.79 74.288 377.158 73.808 375.846 72.848C374.566 71.856 373.926 70.64 373.926 69.2C373.926 67.76 374.406 66.624 375.366 65.792C376.326 64.928 377.526 64.4 378.966 64.208C378.294 65.168 377.958 66.096 377.958 66.992C377.958 67.856 378.262 68.56 378.87 69.104C379.478 69.648 380.246 69.92 381.174 69.92C382.102 69.92 382.87 69.584 383.478 68.912C384.086 68.208 384.39 67.408 384.39 66.512C384.39 65.04 383.702 63.728 382.326 62.576C381.494 61.904 380.598 61.28 379.638 60.704C378.678 60.096 378.166 59.776 378.102 59.744C377.974 59.648 377.846 59.568 377.718 59.504C377.142 60.176 376.31 61.104 375.222 62.288C374.134 63.44 373.27 64.368 372.63 65.072C370.838 67.024 369.83 68.656 369.606 69.968C369.542 70.224 369.51 70.72 369.51 71.456C369.51 72.16 369.718 72.896 370.134 73.664C370.582 74.432 371.11 75.008 371.718 75.392C372.326 75.776 372.918 76.08 373.494 76.304C374.102 76.56 374.614 76.736 375.03 76.832C375.478 76.928 375.702 76.992 375.702 77.024C375.702 77.248 375.35 77.504 374.646 77.792C373.334 78.272 371.958 78.512 370.518 78.512C369.11 78.512 367.734 78 366.39 76.976C364.566 75.568 363.654 73.696 363.654 71.36C363.654 69.92 364.022 68.496 364.758 67.088C366.07 64.592 369.142 61.168 373.974 56.816C372.79 55.632 372.198 54.368 372.198 53.024C372.198 51.68 372.694 50.544 373.686 49.616C374.71 48.688 375.91 48.224 377.286 48.224C378.534 48.224 379.622 48.72 380.55 49.712C381.158 50.384 381.462 51.232 381.462 52.256C381.462 53.28 381.126 54.432 380.454 55.712C383.878 57.248 386.198 58.448 387.414 59.312ZM376.998 53.888C377.766 53.088 378.15 52.512 378.15 52.16C378.15 51.36 377.798 50.928 377.094 50.864C376.294 50.864 375.894 51.312 375.894 52.208C375.894 52.752 376.262 53.312 376.998 53.888Z" fill="white"/>
<path d="M360.837 496.639C330.337 426.639 387.337 379.639 402.837 439.14C442.337 428.639 470.337 496.639 360.837 496.639Z" fill="#B9164A"/>
<path d="M370.194 446.81L376.541 436.111C376.684 435.87 377.335 436.093 378.493 436.78C379.663 437.474 380.176 437.942 380.033 438.182L375.033 446.611L377.682 448.182C377.888 448.305 377.872 448.659 377.632 449.246C377.51 449.53 377.367 449.81 377.204 450.085C377.041 450.36 376.857 450.631 376.653 450.897C376.234 451.393 375.922 451.58 375.715 451.457L370.418 448.314C370.165 448.165 370.026 447.943 369.999 447.648C369.973 447.353 370.038 447.074 370.194 446.81ZM382.246 455.564C380.64 454.612 379.64 453.305 379.245 451.645C378.862 449.991 379.269 448.155 380.467 446.137C381.671 444.107 383.093 442.873 384.732 442.435C386.383 442.004 388.017 442.268 389.634 443.227C391.263 444.193 392.269 445.488 392.655 447.112C393.047 448.725 392.624 450.574 391.386 452.661C390.154 454.737 388.726 455.982 387.1 456.397C385.48 456.801 383.862 456.523 382.246 455.564ZM387.641 446.509C387.09 446.183 386.476 446.16 385.798 446.44C385.132 446.727 384.527 447.329 383.983 448.246C383.445 449.152 383.208 449.957 383.271 450.661C383.341 451.353 383.662 451.87 384.235 452.21C384.82 452.557 385.437 452.589 386.085 452.307C386.744 452.032 387.346 451.435 387.89 450.518C388.435 449.601 388.664 448.783 388.578 448.065C388.503 447.355 388.191 446.836 387.641 446.509ZM395.555 447.252C395.589 447.194 395.867 447.289 396.387 447.536C396.925 447.778 397.355 447.994 397.676 448.184C398.949 448.94 399.516 449.5 399.376 449.867L396.365 458.313L402.248 451.571C402.514 451.279 403.324 451.535 404.677 452.338C405.01 452.535 405.415 452.806 405.892 453.151C406.369 453.497 406.591 453.698 406.557 453.755L396.757 463.336C396.602 463.492 396.192 463.412 395.528 463.095C394.492 462.62 393.59 462.116 392.821 461.582C392.07 461.044 391.72 460.681 391.769 460.493L395.555 447.252ZM410.484 462.271C410.702 462.4 410.573 462.866 410.097 463.669C409.954 463.91 409.755 464.179 409.501 464.478C409.264 464.772 409.077 464.878 408.94 464.796L406.755 463.5L405.735 465.22L408.9 467.098C409.094 467.214 409.077 467.544 408.846 468.09C408.751 468.328 408.629 468.573 408.479 468.825C408.337 469.066 408.115 469.361 407.815 469.71C407.515 470.059 407.284 470.186 407.124 470.091L401.241 466.601C400.806 466.343 400.693 466.036 400.904 465.68L407.466 454.62C407.642 454.322 407.863 454.251 408.127 454.407L414.284 458.061C414.525 458.204 414.343 458.785 413.737 459.806C413.139 460.815 412.719 461.248 412.478 461.105L409.296 459.217L408.265 460.955L410.484 462.271ZM377.507 463.752C377.894 463.439 378.747 463.674 380.065 464.456C380.398 464.654 380.774 464.908 381.194 465.219C381.626 465.537 381.804 465.72 381.729 465.769L373.885 470.836L371.395 475.033C371.28 475.228 370.883 475.178 370.204 474.884C369.856 474.74 369.527 474.576 369.218 474.392C368.908 474.208 368.609 474.007 368.319 473.789C367.736 473.335 367.506 473.005 367.628 472.798L370.057 468.704L370.665 459.252C370.66 459.156 370.933 459.232 371.483 459.481C372.04 459.718 372.496 459.942 372.851 460.153C374.262 460.99 374.913 461.656 374.806 462.15L373.98 466.404L377.507 463.752ZM382.504 482.274C381.506 481.682 381.063 481.202 381.173 480.833L381.922 478.278L379.187 476.655L377.422 478.492C377.143 478.807 376.487 478.658 375.455 478.046C374.904 477.719 374.514 477.449 374.285 477.235C374.062 477.01 373.96 476.88 373.981 476.846L383.934 467.007C383.988 466.915 384.801 467.336 386.372 468.268C387.943 469.2 388.701 469.711 388.647 469.803L384.704 483.231C384.656 483.311 384.355 483.218 383.8 482.95C383.246 482.683 382.814 482.458 382.504 482.274ZM380.913 474.726L382.719 475.797L384.057 471.778L383.954 471.716L380.913 474.726ZM390.606 482.151C390.565 482.22 390.132 482.009 389.307 481.52C388.492 481.037 388.102 480.766 388.136 480.709L392.823 472.025C392.878 471.933 393.427 472.197 394.47 472.816C395.525 473.442 396.029 473.795 395.981 473.875L390.606 482.151ZM387.156 481.499C387.204 481.419 387.755 481.692 388.81 482.318C389.876 482.951 390.389 483.301 390.348 483.37L388.879 485.847C388.811 485.962 388.244 485.703 387.177 485.07C386.122 484.444 385.615 484.097 385.656 484.028L387.156 481.499Z" fill="white"/>
<mask id="mask0_66_2" style="mask-type:alpha" maskUnits="userSpaceOnUse" x="137" y="167" width="247" height="243">
<path d="M261.573 410C64.0259 294.69 130.188 95.7812 261.573 194.755C336.651 108.273 494.783 236.075 261.573 410Z" fill="#D9D9D9"/>
</mask>
<g mask="url(#mask0_66_2)">
<g filter="url(#filter1_d_66_2)">
<path d="M374.664 140.945C281.228 142.306 265.095 226.203 331.687 217.384C341.18 263.141 423.061 249.445 374.664 140.945Z" fill="#FA5D81"/>
<path d="M331.688 217.384C265.096 226.203 277.251 142.364 370.687 141.003C378.485 158.484 383.39 192.886 383.39 192.886C386.803 237.826 340.859 257.31 331.688 217.384Z" fill="#FFB3C6"/>
<path d="M312.763 183.101C312.632 183.334 313.194 183.803 314.45 184.509C315.716 185.221 316.415 185.461 316.546 185.228L321.045 177.226C321.711 176.041 321.833 174.832 321.409 173.599C320.979 172.379 320.014 171.347 318.515 170.504C317.027 169.667 315.597 169.368 314.224 169.606C312.857 169.862 311.804 170.646 311.065 171.96L306.723 179.683C306.592 179.915 307.155 180.384 308.41 181.09C309.677 181.802 310.375 182.042 310.506 181.81L314.927 173.947C315.057 173.715 315.284 173.597 315.607 173.595C315.941 173.599 316.247 173.68 316.526 173.837C316.805 173.994 317.019 174.198 317.168 174.45C317.328 174.709 317.337 174.966 317.193 175.221L312.763 183.101ZM327.867 176.312C327.971 176.126 327.471 175.723 326.367 175.102C325.252 174.475 324.645 174.248 324.547 174.423L318.156 185.789C317.927 186.196 318.028 186.52 318.458 186.762L321.788 188.634C324.844 190.353 327.043 190.021 328.382 187.638C328.787 186.918 329.017 186.183 329.071 185.433C329.119 184.695 328.985 184.008 328.67 183.372L332.925 180.946C332.989 180.615 332.866 180.125 332.558 179.477C332.141 178.586 331.706 178.012 331.253 177.757C330.8 177.503 330.371 177.476 329.967 177.677L326.182 180.574L325.642 180.27L327.867 176.312ZM322.878 185.186L324.348 182.571L324.435 182.62C325.539 183.241 325.833 184.01 325.317 184.928C325.082 185.347 324.798 185.593 324.466 185.666C324.139 185.758 323.732 185.666 323.244 185.392L322.878 185.186ZM336.28 196.989C337.128 197.466 337.94 197.762 338.717 197.877C339.498 198.011 340.004 197.874 340.232 197.467C340.461 197.06 340.588 196.467 340.614 195.686C340.645 194.923 340.556 194.483 340.347 194.365C340.289 194.333 340.203 194.323 340.089 194.335C339.98 194.366 339.766 194.337 339.448 194.25C339.135 194.181 338.88 194.091 338.682 193.98C338.008 193.601 337.596 193.056 337.445 192.344C337.307 191.639 337.515 190.792 338.07 189.804C338.619 188.828 339.237 188.219 339.923 187.978C340.621 187.743 341.295 187.809 341.946 188.175C342.214 188.325 342.49 188.527 342.777 188.779C343.068 189.05 343.244 189.294 343.305 189.512C343.315 189.549 343.355 189.586 343.425 189.626C343.495 189.665 343.698 189.603 344.034 189.44C344.375 189.296 344.748 189.054 345.153 188.716C345.551 188.389 345.815 188.109 345.946 187.877C346.201 187.423 346.054 186.867 345.507 186.208C344.96 185.548 344.21 184.951 343.257 184.415C341.723 183.552 340.158 183.384 338.563 183.909C336.967 184.435 335.617 185.679 334.513 187.644C333.402 189.619 333.035 191.455 333.412 193.151C333.801 194.853 334.757 196.133 336.28 196.989ZM347.051 202.379C346.92 202.612 347.482 203.081 348.738 203.787C350.005 204.499 350.703 204.739 350.834 204.506L355.333 196.504C355.999 195.319 356.121 194.11 355.697 192.877C355.267 191.656 354.302 190.625 352.803 189.782C351.315 188.945 349.885 188.646 348.512 188.884C347.145 189.14 346.092 189.924 345.353 191.238L341.011 198.961C340.881 199.193 341.443 199.662 342.698 200.368C343.965 201.08 344.664 201.32 344.794 201.088L349.215 193.225C349.346 192.993 349.572 192.875 349.895 192.873C350.229 192.877 350.535 192.958 350.814 193.115C351.093 193.272 351.307 193.476 351.456 193.728C351.617 193.987 351.625 194.244 351.481 194.499L347.051 202.379ZM364.053 196.703C364.184 196.471 363.674 196.031 362.523 195.384C361.372 194.737 360.732 194.53 360.601 194.763L355.681 203.514L353.589 202.338C353.391 202.227 353.101 202.416 352.719 202.905C352.541 203.141 352.376 203.393 352.226 203.66C352.076 203.927 351.946 204.198 351.837 204.474C351.618 205.054 351.607 205.4 351.805 205.511L359.388 209.775C359.586 209.886 359.876 209.697 360.258 209.208C360.436 208.972 360.601 208.72 360.751 208.453C360.901 208.186 361.031 207.914 361.14 207.639C361.359 207.059 361.37 206.713 361.172 206.602L359.133 205.455L364.053 196.703ZM369.243 208.937C369.463 209.061 369.803 208.716 370.26 207.902C370.397 207.658 370.532 207.351 370.663 206.982C370.799 206.63 370.798 206.415 370.658 206.337L368.444 205.092L369.425 203.349L372.632 205.152C372.83 205.263 373.107 205.083 373.465 204.611C373.624 204.409 373.775 204.181 373.919 203.925C374.056 203.681 374.201 203.342 374.353 202.907C374.506 202.473 374.501 202.21 374.338 202.119L368.376 198.767C367.934 198.518 367.612 198.574 367.409 198.935L361.107 210.144C360.937 210.446 360.986 210.673 361.253 210.823L367.494 214.332C367.738 214.469 368.151 214.021 368.733 212.986C369.308 211.963 369.473 211.383 369.229 211.246L366.004 209.433L366.994 207.672L369.243 208.937Z" fill="white"/>
</g>
<g filter="url(#filter2_d_66_2)">
<path d="M243.939 246C163.16 199.022 190.214 117.985 243.939 158.308C274.639 123.074 339.3 175.141 243.939 246Z" fill="#B9164A"/>
<path d="M243.94 158.308C190.215 117.985 159.722 197.022 240.501 244C255.865 232.583 277.001 205 277.001 205C302.001 167.5 271.501 128 243.94 158.308Z" fill="#E22E67"/>
<path d="M202.857 191.336V178.896C202.857 178.616 203.53 178.476 204.877 178.476C206.237 178.476 206.917 178.616 206.917 178.896V188.696H209.997C210.237 188.696 210.403 189.009 210.497 189.636C210.537 189.943 210.557 190.256 210.557 190.576C210.557 190.896 210.537 191.223 210.497 191.556C210.39 192.196 210.217 192.516 209.977 192.516H203.817C203.523 192.516 203.29 192.396 203.117 192.156C202.943 191.916 202.857 191.643 202.857 191.336ZM217.688 192.716C215.821 192.716 214.295 192.103 213.108 190.876C211.935 189.649 211.348 187.863 211.348 185.516C211.348 183.156 211.941 181.369 213.128 180.156C214.328 178.943 215.868 178.336 217.748 178.336C219.641 178.336 221.168 178.936 222.328 180.136C223.488 181.323 224.068 183.129 224.068 185.556C224.068 187.969 223.475 189.769 222.288 190.956C221.101 192.129 219.568 192.716 217.688 192.716ZM217.708 182.176C217.068 182.176 216.528 182.469 216.088 183.056C215.661 183.643 215.448 184.469 215.448 185.536C215.448 186.589 215.655 187.403 216.068 187.976C216.481 188.536 217.021 188.816 217.688 188.816C218.368 188.816 218.915 188.529 219.328 187.956C219.755 187.383 219.968 186.563 219.968 185.496C219.968 184.429 219.748 183.609 219.308 183.036C218.881 182.463 218.348 182.176 217.708 182.176ZM224.894 178.776C224.894 178.709 225.18 178.649 225.754 178.596C226.34 178.529 226.82 178.496 227.194 178.496C228.674 178.496 229.447 178.689 229.514 179.076L231.234 187.876L232.854 179.076C232.934 178.689 233.76 178.496 235.334 178.496C235.72 178.496 236.207 178.523 236.794 178.576C237.38 178.629 237.674 178.689 237.674 178.756L234.134 191.996C234.08 192.209 233.687 192.349 232.954 192.416C231.82 192.536 230.787 192.563 229.854 192.496C228.934 192.416 228.447 192.283 228.394 192.096L224.894 178.776ZM245.396 184.076C245.65 184.076 245.776 184.543 245.776 185.476C245.776 185.756 245.743 186.089 245.676 186.476C245.623 186.849 245.516 187.036 245.356 187.036H242.816V189.036H246.496C246.723 189.036 246.876 189.329 246.956 189.916C246.996 190.169 247.016 190.443 247.016 190.736C247.016 191.016 246.976 191.383 246.896 191.836C246.816 192.289 246.683 192.516 246.496 192.516H239.656C239.15 192.516 238.896 192.309 238.896 191.896V179.036C238.896 178.689 239.05 178.516 239.356 178.516H246.516C246.796 178.516 246.936 179.109 246.936 180.296C246.936 181.469 246.796 182.056 246.516 182.056H242.816V184.076H245.396ZM259.489 179.176C259.663 178.709 260.516 178.476 262.049 178.476C262.436 178.476 262.889 178.503 263.409 178.556C263.943 178.609 264.189 178.676 264.149 178.756L259.989 187.116V191.996C259.989 192.223 259.623 192.383 258.889 192.476C258.516 192.529 258.149 192.556 257.789 192.556C257.429 192.556 257.069 192.536 256.709 192.496C255.976 192.403 255.609 192.236 255.609 191.996V187.236L251.309 178.796C251.256 178.716 251.529 178.643 252.129 178.576C252.729 178.496 253.236 178.456 253.649 178.456C255.289 178.456 256.189 178.696 256.349 179.176L257.809 183.256L259.489 179.176ZM273.238 192.556C272.078 192.556 271.451 192.369 271.358 191.996L270.698 189.416H267.518L266.938 191.896C266.858 192.309 266.218 192.516 265.018 192.516C264.378 192.516 263.905 192.483 263.598 192.416C263.291 192.336 263.138 192.276 263.138 192.236L266.678 178.696C266.678 178.589 267.591 178.536 269.418 178.536C271.245 178.536 272.158 178.589 272.158 178.696L275.618 192.256C275.618 192.349 275.311 192.423 274.698 192.476C274.085 192.529 273.598 192.556 273.238 192.556ZM268.018 186.876H270.118L269.218 182.736H269.098L268.018 186.876Z" fill="white"/>
</g>
<g filter="url(#filter3_d_66_2)">
<path d="M280.939 437C200.16 390.022 227.214 308.985 280.939 349.308C311.639 314.074 376.3 366.141 280.939 437Z" fill="#FA5D81"/>
<path d="M280.94 349.308C227.215 308.985 196.722 388.022 277.501 435C292.865 423.583 314.001 396 314.001 396C339.001 358.5 308.501 319 280.94 349.308Z" fill="#FB92AB"/>
<path d="M247.642 369.916C247.642 369.649 248.362 369.516 249.802 369.516C251.255 369.516 251.982 369.649 251.982 369.916V379.096C251.982 380.456 251.495 381.569 250.522 382.436C249.548 383.289 248.202 383.716 246.482 383.716C244.775 383.716 243.382 383.276 242.302 382.396C241.235 381.503 240.702 380.303 240.702 378.796V369.936C240.702 369.669 241.422 369.536 242.862 369.536C244.315 369.536 245.042 369.669 245.042 369.936V378.956C245.042 379.223 245.182 379.436 245.462 379.596C245.755 379.756 246.062 379.836 246.382 379.836C246.702 379.836 246.988 379.763 247.242 379.616C247.508 379.469 247.642 379.249 247.642 378.956V369.916ZM257.48 383.236C257.48 383.449 256.847 383.556 255.58 383.556C254.3 383.556 253.66 383.456 253.66 383.256V370.216C253.66 369.749 253.907 369.516 254.4 369.516H258.22C261.727 369.516 263.48 370.883 263.48 373.616C263.48 374.443 263.32 375.196 263 375.876C262.68 376.543 262.227 377.076 261.64 377.476L264.16 381.676C264.053 381.996 263.707 382.363 263.12 382.776C262.32 383.349 261.66 383.636 261.14 383.636C260.62 383.636 260.233 383.449 259.98 383.076L258.1 378.696H257.48V383.236ZM257.48 373.056V376.056H257.58C258.847 376.056 259.48 375.529 259.48 374.476C259.48 373.996 259.353 373.643 259.1 373.416C258.86 373.176 258.46 373.056 257.9 373.056H257.48ZM274.947 369.336C275.92 369.336 276.773 369.476 277.507 369.756C278.253 370.023 278.627 370.389 278.627 370.856C278.627 371.323 278.447 371.903 278.087 372.596C277.74 373.276 277.447 373.616 277.207 373.616C277.14 373.616 277.06 373.583 276.967 373.516C276.887 373.436 276.687 373.356 276.367 373.276C276.06 373.183 275.793 373.136 275.567 373.136C274.793 373.136 274.167 373.409 273.687 373.956C273.22 374.503 272.987 375.343 272.987 376.476C272.987 377.596 273.227 378.429 273.707 378.976C274.2 379.523 274.82 379.796 275.567 379.796C275.873 379.796 276.213 379.756 276.587 379.676C276.973 379.583 277.247 379.456 277.407 379.296C277.433 379.269 277.487 379.256 277.567 379.256C277.647 379.256 277.793 379.409 278.007 379.716C278.233 380.009 278.44 380.403 278.627 380.896C278.813 381.376 278.907 381.749 278.907 382.016C278.907 382.536 278.507 382.949 277.707 383.256C276.907 383.563 275.96 383.716 274.867 383.716C273.107 383.716 271.66 383.096 270.527 381.856C269.393 380.616 268.827 378.869 268.827 376.616C268.827 374.349 269.407 372.569 270.567 371.276C271.74 369.983 273.2 369.336 274.947 369.336ZM286.978 369.916C286.978 369.649 287.698 369.516 289.138 369.516C290.591 369.516 291.318 369.649 291.318 369.916V379.096C291.318 380.456 290.831 381.569 289.858 382.436C288.884 383.289 287.538 383.716 285.818 383.716C284.111 383.716 282.718 383.276 281.638 382.396C280.571 381.503 280.038 380.303 280.038 378.796V369.936C280.038 369.669 280.758 369.536 282.198 369.536C283.651 369.536 284.378 369.669 284.378 369.936V378.956C284.378 379.223 284.518 379.436 284.798 379.596C285.091 379.756 285.398 379.836 285.718 379.836C286.038 379.836 286.324 379.763 286.578 379.616C286.844 379.469 286.978 379.249 286.978 378.956V369.916ZM299.016 383.196C299.016 383.463 298.356 383.596 297.036 383.596C295.716 383.596 295.056 383.463 295.056 383.196V373.156H292.656C292.429 373.156 292.269 372.849 292.176 372.236C292.136 371.943 292.116 371.643 292.116 371.336C292.116 371.029 292.136 370.729 292.176 370.436C292.269 369.823 292.429 369.516 292.656 369.516H301.356C301.583 369.516 301.743 369.823 301.836 370.436C301.876 370.729 301.896 371.029 301.896 371.336C301.896 371.643 301.876 371.943 301.836 372.236C301.743 372.849 301.583 373.156 301.356 373.156H299.016V383.196ZM309.535 375.076C309.788 375.076 309.915 375.543 309.915 376.476C309.915 376.756 309.882 377.089 309.815 377.476C309.762 377.849 309.655 378.036 309.495 378.036H306.955V380.036H310.635C310.862 380.036 311.015 380.329 311.095 380.916C311.135 381.169 311.155 381.443 311.155 381.736C311.155 382.016 311.115 382.383 311.035 382.836C310.955 383.289 310.822 383.516 310.635 383.516H303.795C303.288 383.516 303.035 383.309 303.035 382.896V370.036C303.035 369.689 303.188 369.516 303.495 369.516H310.655C310.935 369.516 311.075 370.109 311.075 371.296C311.075 372.469 310.935 373.056 310.655 373.056H306.955V375.076H309.535Z" fill="white"/>
</g>
<g filter="url(#filter4_d_66_2)">
<path d="M363.062 330.372C275.671 297.283 289.064 212.906 348.676 243.868C373.179 204.075 445.506 244.829 363.062 330.372Z" fill="#FA5D81"/>
<path d="M348.676 243.868C289.065 212.905 271.952 295.874 359.343 328.963C372.626 315.181 388.95 284.503 388.95 284.503C407.459 243.41 370.892 209.449 348.676 243.868Z" fill="#FB92AB"/>
<path d="M328.309 268.289C328.401 267.868 329.191 267.534 330.677 267.287C331.058 267.223 331.531 267.178 332.094 267.152C332.668 267.111 332.96 267.116 332.969 267.169L330.75 274.553L335.308 280.506C335.359 280.565 335.087 280.678 334.493 280.844C333.896 280.997 333.388 281.109 332.967 281.179C331.297 281.457 330.345 281.385 330.113 280.964L328.007 277.442L327.312 281.552C327.241 281.942 326.43 282.266 324.878 282.524C324.497 282.588 324.019 282.64 323.444 282.682C322.87 282.723 322.602 282.693 322.639 282.593L324.581 275.255L320.302 269.276C320.252 269.216 320.512 269.112 321.082 268.963C321.663 268.799 322.157 268.683 322.565 268.615C324.222 268.34 325.169 268.426 325.406 268.873L327.318 271.961L328.309 268.289ZM342.558 279.767C340.716 280.073 339.11 279.718 337.738 278.703C336.379 277.685 335.507 276.019 335.122 273.704C334.735 271.376 335.027 269.516 335.999 268.125C336.983 266.731 338.403 265.88 340.258 265.572C342.125 265.261 343.73 265.602 345.071 266.596C346.41 267.576 347.278 269.263 347.676 271.657C348.072 274.037 347.782 275.91 346.806 277.276C345.828 278.628 344.412 279.458 342.558 279.767ZM340.848 269.366C340.217 269.471 339.732 269.849 339.394 270.5C339.07 271.149 338.995 271.999 339.17 273.051C339.343 274.09 339.68 274.859 340.182 275.357C340.681 275.841 341.26 276.029 341.918 275.919C342.588 275.808 343.081 275.435 343.394 274.802C343.721 274.166 343.797 273.323 343.622 272.27C343.447 271.218 343.096 270.445 342.567 269.952C342.053 269.456 341.479 269.261 340.848 269.366ZM355.514 263.764C355.606 263.343 356.395 263.009 357.881 262.762C358.263 262.699 358.735 262.654 359.298 262.628C359.873 262.586 360.164 262.592 360.173 262.645L357.954 270.029L362.513 275.981C362.563 276.041 362.291 276.153 361.697 276.32C361.101 276.473 360.592 276.585 360.171 276.655C358.501 276.932 357.55 276.861 357.318 276.44L355.211 272.918L354.516 277.028C354.446 277.418 353.635 277.742 352.083 278C351.701 278.063 351.223 278.116 350.649 278.157C350.075 278.199 349.806 278.169 349.843 278.068L351.786 270.73L347.507 264.751C347.457 264.692 347.716 264.588 348.286 264.439C348.867 264.275 349.362 264.159 349.769 264.091C351.427 263.815 352.373 263.901 352.61 264.348L354.523 267.436L355.514 263.764ZM369.762 275.242C367.921 275.548 366.314 275.194 364.942 274.178C363.584 273.161 362.712 271.495 362.327 269.18C361.939 266.852 362.232 264.992 363.203 263.6C364.188 262.207 365.607 261.355 367.462 261.047C369.33 260.736 370.934 261.078 372.275 262.071C373.614 263.052 374.483 264.739 374.881 267.132C375.277 269.513 374.987 271.386 374.011 272.751C373.033 274.103 371.617 274.934 369.762 275.242ZM368.053 264.842C367.421 264.947 366.937 265.325 366.599 265.975C366.274 266.624 366.199 267.475 366.374 268.527C366.547 269.566 366.885 270.334 367.386 270.832C367.886 271.317 368.465 271.504 369.122 271.395C369.793 271.283 370.285 270.911 370.599 270.277C370.926 269.642 371.002 268.798 370.827 267.746C370.652 266.694 370.3 265.921 369.772 265.427C369.257 264.932 368.684 264.737 368.053 264.842Z" fill="white"/>
</g>
<g filter="url(#filter5_d_66_2)">
<path d="M248.939 331C168.16 284.022 195.214 202.985 248.939 243.308C279.639 208.074 344.3 260.141 248.939 331Z" fill="#FA5D81"/>
<path d="M248.94 243.308C195.215 202.985 164.722 282.022 245.501 329C260.865 317.583 282.001 290 282.001 290C307.001 252.5 276.501 213 248.94 243.308Z" fill="#FB92AB"/>
<path d="M207.857 276.336L207.857 263.896C207.857 263.616 208.53 263.476 209.877 263.476C211.237 263.476 211.917 263.616 211.917 263.896L211.917 273.696L214.997 273.696C215.237 273.696 215.403 274.01 215.497 274.636C215.537 274.943 215.557 275.256 215.557 275.576C215.557 275.896 215.537 276.223 215.497 276.556C215.39 277.196 215.217 277.516 214.977 277.516L208.817 277.516C208.523 277.516 208.29 277.396 208.117 277.156C207.943 276.916 207.857 276.643 207.857 276.336ZM222.688 277.716C220.821 277.716 219.295 277.103 218.108 275.876C216.935 274.65 216.348 272.863 216.348 270.516C216.348 268.156 216.941 266.37 218.128 265.156C219.328 263.943 220.868 263.336 222.748 263.336C224.641 263.336 226.168 263.936 227.328 265.136C228.488 266.323 229.068 268.13 229.068 270.556C229.068 272.97 228.475 274.77 227.288 275.956C226.101 277.13 224.568 277.716 222.688 277.716ZM222.708 267.176C222.068 267.176 221.528 267.47 221.088 268.056C220.661 268.643 220.448 269.47 220.448 270.536C220.448 271.59 220.655 272.403 221.068 272.976C221.481 273.536 222.021 273.816 222.688 273.816C223.368 273.816 223.915 273.53 224.328 272.956C224.755 272.383 224.968 271.563 224.968 270.496C224.968 269.43 224.748 268.61 224.308 268.036C223.881 267.463 223.348 267.176 222.708 267.176ZM229.894 263.776C229.894 263.71 230.18 263.65 230.754 263.596C231.34 263.53 231.82 263.496 232.194 263.496C233.674 263.496 234.447 263.69 234.514 264.076L236.234 272.876L237.854 264.076C237.934 263.69 238.76 263.496 240.334 263.496C240.72 263.496 241.207 263.523 241.794 263.576C242.38 263.63 242.674 263.69 242.674 263.756L239.134 276.996C239.08 277.21 238.687 277.35 237.954 277.416C236.82 277.536 235.787 277.563 234.854 277.496C233.934 277.416 233.447 277.283 233.394 277.096L229.894 263.776ZM250.396 269.076C250.65 269.076 250.776 269.543 250.776 270.476C250.776 270.756 250.743 271.09 250.676 271.476C250.623 271.85 250.516 272.036 250.356 272.036L247.816 272.036L247.816 274.036L251.496 274.036C251.723 274.036 251.876 274.33 251.956 274.916C251.996 275.17 252.016 275.443 252.016 275.736C252.016 276.016 251.976 276.383 251.896 276.836C251.816 277.29 251.683 277.516 251.496 277.516L244.656 277.516C244.15 277.516 243.896 277.31 243.896 276.896L243.896 264.036C243.896 263.69 244.05 263.516 244.356 263.516L251.516 263.516C251.796 263.516 251.936 264.11 251.936 265.296C251.936 266.47 251.796 267.056 251.516 267.056L247.816 267.056L247.816 269.076L250.396 269.076ZM264.489 264.176C264.663 263.71 265.516 263.476 267.049 263.476C267.436 263.476 267.889 263.503 268.409 263.556C268.943 263.61 269.189 263.676 269.149 263.756L264.989 272.116L264.989 276.996C264.989 277.223 264.623 277.383 263.889 277.476C263.516 277.53 263.149 277.556 262.789 277.556C262.429 277.556 262.069 277.536 261.709 277.496C260.976 277.403 260.609 277.236 260.609 276.996L260.609 272.236L256.309 263.796C256.256 263.716 256.529 263.643 257.129 263.576C257.729 263.496 258.236 263.456 258.649 263.456C260.289 263.456 261.189 263.696 261.349 264.176L262.809 268.256L264.489 264.176ZM278.238 277.556C277.078 277.556 276.451 277.37 276.358 276.996L275.698 274.416L272.518 274.416L271.938 276.896C271.858 277.31 271.218 277.516 270.018 277.516C269.378 277.516 268.905 277.483 268.598 277.416C268.291 277.336 268.138 277.276 268.138 277.236L271.678 263.696C271.678 263.59 272.591 263.536 274.418 263.536C276.245 263.536 277.158 263.59 277.158 263.696L280.618 277.256C280.618 277.35 280.311 277.423 279.698 277.476C279.085 277.53 278.598 277.556 278.238 277.556ZM273.018 271.876L275.118 271.876L274.218 267.736L274.098 267.736L273.018 271.876Z" fill="white"/>
</g>
<g filter="url(#filter6_d_66_2)">
<path d="M140.212 260.243C116.845 169.766 193.501 132.046 202.585 198.602C249.224 195.671 257.643 278.262 140.212 260.243Z" fill="#FFB3C6"/>
<path d="M202.585 198.603C193.501 132.047 115.851 165.915 139.218 256.392C158.138 259.295 192.614 254.939 192.614 254.939C236.859 246.361 243.515 196.902 202.585 198.603Z" fill="#FFCCDB"/>
<path d="M164.521 189.405C164.711 189.218 165.312 189.636 166.324 190.66C167.345 191.694 167.761 192.304 167.572 192.492L161.042 198.945C160.075 199.901 158.941 200.337 157.64 200.254C156.349 200.162 155.099 199.504 153.89 198.28C152.69 197.066 152.024 195.766 151.891 194.379C151.776 192.993 152.255 191.77 153.327 190.711L159.628 184.483C159.818 184.295 160.419 184.714 161.431 185.738C162.453 186.772 162.869 187.382 162.679 187.57L156.264 193.91C156.074 194.098 156.021 194.347 156.104 194.659C156.196 194.98 156.355 195.254 156.58 195.482C156.804 195.709 157.058 195.862 157.341 195.939C157.632 196.025 157.882 195.966 158.091 195.759L164.521 189.405ZM161.963 205.766C161.811 205.916 161.29 205.54 160.4 204.639C159.5 203.729 159.121 203.203 159.263 203.063L168.538 193.897C168.87 193.569 169.209 193.58 169.556 193.931L172.241 196.648C174.706 199.142 174.967 201.35 173.023 203.271C172.435 203.852 171.786 204.268 171.078 204.518C170.379 204.76 169.681 204.812 168.984 204.676L167.768 209.421C167.465 209.57 166.961 209.581 166.254 209.454C165.284 209.288 164.616 209.02 164.251 208.65C163.885 208.28 163.746 207.874 163.834 207.432L165.628 203.016L165.192 202.575L161.963 205.766ZM169.203 198.61L167.07 200.719L167.14 200.79C168.03 201.691 168.85 201.771 169.599 201.031C169.941 200.693 170.103 200.355 170.086 200.015C170.088 199.676 169.892 199.307 169.499 198.909L169.203 198.61ZM184.127 208.418C184.811 209.111 185.311 209.816 185.628 210.535C185.963 211.253 185.964 211.776 185.632 212.104C185.301 212.432 184.761 212.712 184.015 212.943C183.288 213.175 182.84 213.205 182.671 213.034C182.624 212.987 182.592 212.907 182.574 212.793C182.574 212.68 182.491 212.482 182.323 212.198C182.173 211.914 182.019 211.692 181.86 211.531C181.316 210.98 180.681 210.727 179.955 210.77C179.238 210.822 178.477 211.247 177.671 212.043C176.874 212.831 176.45 213.587 176.399 214.313C176.357 215.048 176.598 215.681 177.123 216.212C177.338 216.43 177.606 216.644 177.925 216.853C178.263 217.063 178.546 217.168 178.772 217.169C178.81 217.169 178.856 217.198 178.913 217.255C178.969 217.312 178.963 217.524 178.895 217.891C178.846 218.259 178.711 218.682 178.491 219.162C178.281 219.632 178.081 219.961 177.892 220.148C177.522 220.514 176.947 220.52 176.166 220.166C175.386 219.813 174.611 219.247 173.843 218.47C172.605 217.218 172.03 215.753 172.115 214.075C172.2 212.398 173.044 210.767 174.647 209.183C176.259 207.589 177.933 206.751 179.668 206.667C181.413 206.592 182.899 207.176 184.127 208.418ZM192.171 217.383C192.361 217.196 192.962 217.614 193.974 218.638C194.996 219.672 195.411 220.283 195.222 220.47L188.692 226.923C187.725 227.879 186.591 228.315 185.29 228.232C183.999 228.14 182.749 227.482 181.54 226.259C180.341 225.045 179.674 223.744 179.541 222.358C179.427 220.971 179.905 219.748 180.977 218.689L187.279 212.461C187.468 212.274 188.069 212.692 189.081 213.716C190.103 214.75 190.519 215.361 190.329 215.548L183.914 221.888C183.724 222.076 183.671 222.325 183.754 222.637C183.846 222.958 184.005 223.233 184.23 223.46C184.455 223.688 184.708 223.84 184.991 223.917C185.282 224.004 185.533 223.944 185.741 223.738L192.171 217.383ZM191.188 235.281C190.998 235.468 190.439 235.093 189.511 234.154C188.584 233.215 188.214 232.652 188.404 232.464L195.545 225.407L193.858 223.7C193.699 223.539 193.805 223.209 194.175 222.712C194.356 222.477 194.555 222.252 194.773 222.036C194.991 221.821 195.219 221.624 195.455 221.446C195.957 221.082 196.288 220.98 196.447 221.141L202.563 227.329C202.722 227.49 202.616 227.82 202.246 228.317C202.065 228.552 201.866 228.777 201.648 228.993C201.43 229.208 201.202 229.405 200.965 229.583C200.464 229.947 200.133 230.049 199.974 229.888L198.329 228.223L191.188 235.281ZM204.357 237.055C204.535 237.235 204.292 237.653 203.629 238.309C203.429 238.506 203.169 238.717 202.847 238.941C202.544 239.166 202.336 239.221 202.224 239.107L200.438 237.3L199.016 238.706L201.603 241.324C201.762 241.485 201.661 241.8 201.3 242.27C201.148 242.476 200.968 242.682 200.759 242.889C200.56 243.085 200.271 243.315 199.892 243.576C199.514 243.838 199.259 243.903 199.127 243.77L194.319 238.905C193.963 238.545 193.932 238.219 194.226 237.929L203.373 228.889C203.62 228.645 203.851 228.632 204.066 228.851L209.099 233.943C209.296 234.142 208.972 234.659 208.128 235.493C207.294 236.318 206.778 236.631 206.581 236.432L203.981 233.8L202.544 235.22L204.357 237.055Z" fill="white"/>
</g>
<g filter="url(#filter7_d_66_2)">
<path d="M322.937 375.351C233 349.982 239.01 264.76 301.087 290.425C322.039 248.653 397.634 282.967 322.937 375.351Z" fill="#B9164A"/>
<path d="M301.088 290.424C239.011 264.759 229.173 348.902 319.109 374.271C331.144 359.386 344.74 327.406 344.74 327.406C359.608 284.86 320.228 254.205 301.088 290.424Z" fill="#E22E67"/>
<path d="M282.919 316.523C282.975 316.095 283.732 315.694 285.191 315.319C285.566 315.222 286.032 315.137 286.591 315.062C287.16 314.971 287.451 314.951 287.464 315.002L285.895 322.551L290.954 328.085C291.009 328.14 290.748 328.276 290.171 328.493C289.59 328.698 289.093 328.853 288.68 328.96C287.04 329.382 286.086 329.393 285.818 328.994L283.414 325.668L283.078 329.823C283.042 330.217 282.262 330.611 280.739 331.003C280.364 331.099 279.893 331.193 279.324 331.284C278.756 331.375 278.485 331.369 278.514 331.265L279.811 323.786L275.029 318.202C274.974 318.147 275.223 318.021 275.778 317.823C276.343 317.609 276.825 317.45 277.225 317.347C278.852 316.929 279.803 316.932 280.078 317.357L282.251 320.267L282.919 316.523ZM298.111 326.719C296.304 327.184 294.672 326.97 293.217 326.078C291.776 325.182 290.762 323.598 290.177 321.326C289.589 319.04 289.719 317.162 290.566 315.691C291.426 314.217 292.766 313.246 294.587 312.777C296.42 312.306 298.048 312.506 299.471 313.38C300.89 314.24 301.902 315.845 302.506 318.195C303.108 320.532 302.981 322.423 302.128 323.868C301.271 325.3 299.932 326.25 298.111 326.719ZM295.505 316.506C294.885 316.666 294.435 317.084 294.155 317.762C293.888 318.437 293.887 319.29 294.153 320.323C294.416 321.344 294.818 322.08 295.362 322.532C295.901 322.971 296.494 323.108 297.14 322.942C297.798 322.772 298.256 322.359 298.514 321.7C298.784 321.039 298.786 320.192 298.521 319.159C298.255 318.126 297.837 317.386 297.268 316.941C296.712 316.492 296.124 316.347 295.505 316.506ZM309.628 309.651C309.683 309.224 310.44 308.823 311.899 308.447C312.274 308.351 312.741 308.265 313.3 308.19C313.868 308.099 314.159 308.079 314.172 308.131L312.604 315.68L317.662 321.214C317.718 321.269 317.457 321.405 316.879 321.622C316.298 321.826 315.802 321.982 315.388 322.088C313.748 322.51 312.794 322.521 312.527 322.122L310.122 318.796L309.787 322.951C309.751 323.346 308.971 323.739 307.447 324.131C307.072 324.228 306.601 324.321 306.032 324.413C305.464 324.504 305.194 324.498 305.222 324.394L306.52 316.915L301.737 311.33C301.682 311.276 301.932 311.149 302.487 310.952C303.051 310.737 303.533 310.579 303.934 310.476C305.561 310.057 306.512 310.061 306.786 310.486L308.96 313.396L309.628 309.651ZM324.82 319.847C323.012 320.313 321.381 320.099 319.926 319.207C318.484 318.311 317.471 316.727 316.886 314.454C316.298 312.169 316.427 310.29 317.274 308.82C318.134 307.346 319.474 306.374 321.295 305.906C323.129 305.434 324.757 305.635 326.179 306.508C327.598 307.368 328.61 308.973 329.215 311.324C329.816 313.661 329.69 315.552 328.836 316.997C327.979 318.429 326.641 319.379 324.82 319.847ZM322.213 309.635C321.593 309.794 321.143 310.213 320.863 310.891C320.596 311.565 320.596 312.419 320.861 313.452C321.124 314.472 321.527 315.208 322.07 315.661C322.61 316.1 323.202 316.237 323.848 316.07C324.507 315.901 324.965 315.487 325.222 314.829C325.492 314.167 325.495 313.32 325.229 312.287C324.963 311.254 324.546 310.515 323.977 310.069C323.421 309.62 322.833 309.475 322.213 309.635Z" fill="white"/>
</g>
<g filter="url(#filter8_d_66_2)">
<path d="M252.946 380.699C160.449 393.984 131.379 313.648 198.531 311.932C200.742 265.252 283.757 265.959 252.946 380.699Z" fill="#FFB3C6"/>
<path d="M198.531 311.931C131.38 313.648 156.512 394.549 249.009 381.264C253.973 362.777 253.431 328.031 253.431 328.031C249.766 283.111 201.338 271.062 198.531 311.931Z" fill="#FFCCDB"/>
<path d="M186.809 363.325L179.09 353.569C178.916 353.35 179.358 352.822 180.414 351.986C181.48 351.143 182.1 350.83 182.274 351.05L188.355 358.735L190.77 356.824C190.959 356.675 191.284 356.817 191.746 357.251C191.967 357.466 192.178 357.7 192.376 357.951C192.575 358.202 192.762 358.47 192.937 358.756C193.251 359.324 193.313 359.683 193.125 359.832L188.295 363.654C188.064 363.836 187.807 363.887 187.522 363.806C187.237 363.726 187 363.565 186.809 363.325ZM199.296 355.204C197.833 356.362 196.255 356.828 194.563 356.603C192.882 356.369 191.313 355.332 189.857 353.492C188.392 351.641 187.749 349.872 187.927 348.184C188.115 346.488 188.946 345.056 190.42 343.89C191.905 342.715 193.475 342.238 195.129 342.459C196.775 342.67 198.351 343.727 199.857 345.63C201.354 347.522 202.006 349.302 201.812 350.969C201.609 352.625 200.771 354.037 199.296 355.204ZM192.772 346.926C192.27 347.323 192.028 347.888 192.047 348.621C192.077 349.346 192.423 350.127 193.084 350.963C193.738 351.789 194.405 352.299 195.085 352.492C195.756 352.674 196.354 352.559 196.876 352.145C197.41 351.723 197.66 351.159 197.629 350.453C197.608 349.739 197.266 348.963 196.604 348.127C195.942 347.29 195.261 346.784 194.56 346.607C193.87 346.423 193.274 346.529 192.772 346.926ZM196.297 339.801C196.256 339.748 196.443 339.523 196.86 339.126C197.278 338.709 197.634 338.385 197.927 338.154C199.087 337.235 199.814 336.907 200.106 337.169L206.915 343.003L202.725 335.096C202.548 334.744 203.076 334.079 204.31 333.103C204.613 332.863 205.012 332.582 205.505 332.26C205.998 331.937 206.265 331.802 206.306 331.855L211.746 344.434C211.837 344.634 211.615 344.988 211.081 345.495C210.267 346.293 209.473 346.955 208.7 347.482C207.929 347.99 207.465 348.187 207.307 348.074L196.297 339.801ZM215.664 331.234C215.862 331.077 216.251 331.365 216.83 332.096C217.004 332.316 217.185 332.598 217.372 332.943C217.562 333.269 217.595 333.481 217.469 333.58L215.477 335.157L216.718 336.725L219.604 334.441C219.782 334.301 220.084 334.436 220.511 334.846C220.699 335.02 220.885 335.222 221.067 335.452C221.24 335.671 221.437 335.984 221.655 336.389C221.874 336.794 221.91 337.055 221.763 337.17L216.4 341.415C216.002 341.729 215.675 341.724 215.419 341.4L207.439 331.315C207.224 331.044 207.237 330.813 207.477 330.622L213.092 326.179C213.311 326.006 213.789 326.384 214.526 327.315C215.254 328.235 215.508 328.782 215.288 328.955L212.387 331.251L213.64 332.835L215.664 331.234ZM223.674 318.647C223.521 318.173 224.045 317.461 225.248 316.509C225.551 316.27 225.923 316.009 226.364 315.728C226.815 315.439 227.05 315.338 227.068 315.426L228.994 324.563L232.022 328.39C232.162 328.568 231.974 328.921 231.457 329.449C231.197 329.722 230.926 329.971 230.644 330.194C230.362 330.418 230.067 330.625 229.76 330.817C229.127 331.199 228.736 331.296 228.587 331.108L225.633 327.375L217.024 323.425C216.933 323.395 217.101 323.168 217.531 322.743C217.951 322.308 218.324 321.963 218.648 321.706C219.934 320.689 220.789 320.318 221.212 320.595L224.889 322.889L223.674 318.647ZM242.759 320.608C241.849 321.328 241.242 321.57 240.937 321.335L238.818 319.722L236.325 321.695L237.409 324C237.602 324.374 237.229 324.933 236.288 325.677C235.786 326.074 235.394 326.342 235.112 326.48C234.822 326.608 234.665 326.656 234.64 326.624L229.014 313.81C228.948 313.726 229.631 313.118 231.063 311.984C232.496 310.851 233.245 310.326 233.311 310.409L244.439 318.896C244.497 318.969 244.302 319.217 243.854 319.639C243.406 320.062 243.041 320.385 242.759 320.608ZM235.141 319.393L236.787 318.09L233.513 315.402L233.418 315.476L235.141 319.393Z" fill="white"/>
</g>
<g filter="url(#filter9_d_66_2)">
<path d="M172.939 326C92.1604 279.022 119.214 197.985 172.939 238.308C203.639 203.074 268.3 255.141 172.939 326Z" fill="#B9164A"/>
<path d="M172.94 238.308C119.215 197.985 88.7223 277.022 169.501 324C184.865 312.583 206.001 285 206.001 285C231.001 247.5 200.501 208 172.94 238.308Z" fill="#E22E67"/>
<path d="M139.642 258.916C139.642 258.649 140.362 258.516 141.802 258.516C143.255 258.516 143.982 258.649 143.982 258.916V268.096C143.982 269.456 143.495 270.569 142.522 271.436C141.548 272.289 140.202 272.716 138.482 272.716C136.775 272.716 135.382 272.276 134.302 271.396C133.235 270.503 132.702 269.303 132.702 267.796V258.936C132.702 258.669 133.422 258.536 134.862 258.536C136.315 258.536 137.042 258.669 137.042 258.936V267.956C137.042 268.223 137.182 268.436 137.462 268.596C137.755 268.756 138.062 268.836 138.382 268.836C138.702 268.836 138.988 268.763 139.242 268.616C139.508 268.469 139.642 268.249 139.642 267.956V258.916ZM149.48 272.236C149.48 272.449 148.847 272.556 147.58 272.556C146.3 272.556 145.66 272.456 145.66 272.256V259.216C145.66 258.749 145.907 258.516 146.4 258.516H150.22C153.727 258.516 155.48 259.883 155.48 262.616C155.48 263.443 155.32 264.196 155 264.876C154.68 265.543 154.227 266.076 153.64 266.476L156.16 270.676C156.053 270.996 155.707 271.363 155.12 271.776C154.32 272.349 153.66 272.636 153.14 272.636C152.62 272.636 152.233 272.449 151.98 272.076L150.1 267.696H149.48V272.236ZM149.48 262.056V265.056H149.58C150.847 265.056 151.48 264.529 151.48 263.476C151.48 262.996 151.353 262.643 151.1 262.416C150.86 262.176 150.46 262.056 149.9 262.056H149.48ZM166.947 258.336C167.92 258.336 168.773 258.476 169.507 258.756C170.253 259.023 170.627 259.389 170.627 259.856C170.627 260.323 170.447 260.903 170.087 261.596C169.74 262.276 169.447 262.616 169.207 262.616C169.14 262.616 169.06 262.583 168.967 262.516C168.887 262.436 168.687 262.356 168.367 262.276C168.06 262.183 167.793 262.136 167.567 262.136C166.793 262.136 166.167 262.409 165.687 262.956C165.22 263.503 164.987 264.343 164.987 265.476C164.987 266.596 165.227 267.429 165.707 267.976C166.2 268.523 166.82 268.796 167.567 268.796C167.873 268.796 168.213 268.756 168.587 268.676C168.973 268.583 169.247 268.456 169.407 268.296C169.433 268.269 169.487 268.256 169.567 268.256C169.647 268.256 169.793 268.409 170.007 268.716C170.233 269.009 170.44 269.403 170.627 269.896C170.813 270.376 170.907 270.749 170.907 271.016C170.907 271.536 170.507 271.949 169.707 272.256C168.907 272.563 167.96 272.716 166.867 272.716C165.107 272.716 163.66 272.096 162.527 270.856C161.393 269.616 160.827 267.869 160.827 265.616C160.827 263.349 161.407 261.569 162.567 260.276C163.74 258.983 165.2 258.336 166.947 258.336ZM178.978 258.916C178.978 258.649 179.698 258.516 181.138 258.516C182.591 258.516 183.318 258.649 183.318 258.916V268.096C183.318 269.456 182.831 270.569 181.858 271.436C180.884 272.289 179.538 272.716 177.818 272.716C176.111 272.716 174.718 272.276 173.638 271.396C172.571 270.503 172.038 269.303 172.038 267.796V258.936C172.038 258.669 172.758 258.536 174.198 258.536C175.651 258.536 176.378 258.669 176.378 258.936V267.956C176.378 268.223 176.518 268.436 176.798 268.596C177.091 268.756 177.398 268.836 177.718 268.836C178.038 268.836 178.324 268.763 178.578 268.616C178.844 268.469 178.978 268.249 178.978 267.956V258.916ZM191.016 272.196C191.016 272.463 190.356 272.596 189.036 272.596C187.716 272.596 187.056 272.463 187.056 272.196V262.156H184.656C184.429 262.156 184.269 261.849 184.176 261.236C184.136 260.943 184.116 260.643 184.116 260.336C184.116 260.029 184.136 259.729 184.176 259.436C184.269 258.823 184.429 258.516 184.656 258.516H193.356C193.583 258.516 193.743 258.823 193.836 259.436C193.876 259.729 193.896 260.029 193.896 260.336C193.896 260.643 193.876 260.943 193.836 261.236C193.743 261.849 193.583 262.156 193.356 262.156H191.016V272.196ZM201.535 264.076C201.788 264.076 201.915 264.543 201.915 265.476C201.915 265.756 201.882 266.089 201.815 266.476C201.762 266.849 201.655 267.036 201.495 267.036H198.955V269.036H202.635C202.862 269.036 203.015 269.329 203.095 269.916C203.135 270.169 203.155 270.443 203.155 270.736C203.155 271.016 203.115 271.383 203.035 271.836C202.955 272.289 202.822 272.516 202.635 272.516H195.795C195.288 272.516 195.035 272.309 195.035 271.896V259.036C195.035 258.689 195.188 258.516 195.495 258.516H202.655C202.935 258.516 203.075 259.109 203.075 260.296C203.075 261.469 202.935 262.056 202.655 262.056H198.955V264.076H201.535Z" fill="white"/>
</g>
<g filter="url(#filter10_d_66_2)">
<path d="M269.272 279.103C224.543 197.057 289.685 141.78 314.727 204.111C359.244 189.893 387.551 267.937 269.272 279.103Z" fill="#FFB3C6"/>
<path d="M314.728 204.111C289.685 141.78 222.64 193.565 267.368 275.61C286.425 273.811 318.798 261.178 318.798 261.178C359.615 242.068 354.007 192.479 314.728 204.111Z" fill="#FFCCDB"/>
<path d="M283.365 209.364C283.709 209.105 284.525 209.365 285.814 210.146C286.145 210.347 286.532 210.621 286.976 210.968C287.439 211.311 287.657 211.505 287.629 211.551L281.134 215.706L280.713 223.192C280.713 223.27 280.433 223.178 279.874 222.917C279.322 222.645 278.863 222.398 278.498 222.177C277.05 221.299 276.375 220.625 276.474 220.154L277.171 216.11L273.966 218.774C273.658 219.025 272.832 218.742 271.486 217.926C271.155 217.726 270.759 217.454 270.296 217.112C269.833 216.769 269.649 216.571 269.743 216.519L275.998 212.219L276.649 204.895C276.649 204.817 276.914 204.908 277.443 205.166C277.991 205.42 278.441 205.654 278.795 205.868C280.231 206.739 280.894 207.421 280.782 207.915L280.22 211.504L283.365 209.364ZM286.694 227.355C285.097 226.387 284.11 225.071 283.731 223.407C283.363 221.75 283.788 219.918 285.004 217.911C286.227 215.893 287.661 214.673 289.305 214.25C290.96 213.835 292.591 214.114 294.199 215.089C295.818 216.07 296.813 217.374 297.183 219.002C297.559 220.618 297.119 222.464 295.861 224.539C294.61 226.603 293.17 227.834 291.54 228.234C289.917 228.622 288.301 228.329 286.694 227.355ZM292.174 218.352C291.627 218.02 291.013 217.991 290.333 218.264C289.664 218.545 289.053 219.141 288.5 220.054C287.954 220.954 287.709 221.757 287.765 222.462C287.829 223.155 288.145 223.674 288.715 224.02C289.297 224.372 289.913 224.41 290.564 224.134C291.226 223.865 291.833 223.274 292.386 222.362C292.939 221.45 293.176 220.635 293.097 219.916C293.029 219.205 292.722 218.683 292.174 218.352ZM306.949 223.659C307.293 223.4 308.109 223.661 309.398 224.441C309.729 224.642 310.116 224.916 310.56 225.263C311.023 225.606 311.241 225.8 311.213 225.846L304.718 230.001L304.297 237.487C304.297 237.565 304.017 237.473 303.458 237.212C302.906 236.94 302.447 236.693 302.082 236.472C300.634 235.594 299.959 234.92 300.058 234.449L300.755 230.405L297.55 233.07C297.242 233.32 296.415 233.037 295.07 232.221C294.739 232.021 294.343 231.749 293.88 231.407C293.417 231.064 293.233 230.866 293.327 230.814L299.582 226.514L300.232 219.19C300.233 219.112 300.498 219.203 301.027 219.461C301.575 219.715 302.025 219.949 302.379 220.164C303.815 221.034 304.478 221.717 304.366 222.21L303.804 225.799L306.949 223.659ZM310.278 241.65C308.681 240.682 307.694 239.366 307.315 237.702C306.947 236.045 307.372 234.213 308.588 232.206C309.811 230.188 311.245 228.968 312.889 228.545C314.544 228.13 316.175 228.409 317.783 229.384C319.402 230.365 320.397 231.669 320.767 233.297C321.143 234.913 320.703 236.759 319.445 238.834C318.194 240.898 316.754 242.129 315.124 242.529C313.501 242.917 311.885 242.624 310.278 241.65ZM315.758 232.647C315.211 232.315 314.597 232.286 313.917 232.56C313.248 232.84 312.637 233.436 312.084 234.349C311.538 235.249 311.293 236.052 311.349 236.757C311.412 237.45 311.729 237.969 312.299 238.315C312.881 238.667 313.497 238.705 314.148 238.429C314.81 238.16 315.417 237.57 315.97 236.657C316.523 235.745 316.76 234.93 316.681 234.212C316.613 233.5 316.306 232.978 315.758 232.647Z" fill="white"/>
</g>
</g>
<path d="M96.3038 479.56C96.3038 479.84 95.6771 479.98 94.4238 479.98C93.1704 479.98 92.4904 479.88 92.3838 479.68L89.0438 473.44V479.66C89.0438 479.9 88.4238 480.02 87.1838 480.02C85.9571 480.02 85.3438 479.9 85.3438 479.66V466.28C85.3438 466.08 85.8704 465.98 86.9238 465.98C87.3371 465.98 87.8171 466.02 88.3638 466.1C88.9238 466.167 89.2638 466.3 89.3838 466.5L92.5838 472.66V466.38C92.5838 466.127 93.2038 466 94.4437 466C95.6838 466 96.3038 466.127 96.3038 466.38V479.56ZM104.813 471.56C105.066 471.56 105.193 472.027 105.193 472.96C105.193 473.24 105.159 473.573 105.093 473.96C105.039 474.333 104.933 474.52 104.773 474.52H102.233V476.52H105.913C106.139 476.52 106.293 476.813 106.373 477.4C106.413 477.653 106.433 477.927 106.433 478.22C106.433 478.5 106.393 478.867 106.313 479.32C106.233 479.773 106.099 480 105.913 480H99.0725C98.5658 480 98.3125 479.793 98.3125 479.38V466.52C98.3125 466.173 98.4658 466 98.7725 466H105.933C106.213 466 106.353 466.593 106.353 467.78C106.353 468.953 106.213 469.54 105.933 469.54H102.233V471.56H104.813ZM114.196 479.68C114.196 479.947 113.536 480.08 112.216 480.08C110.896 480.08 110.236 479.947 110.236 479.68V469.64H107.836C107.609 469.64 107.449 469.333 107.356 468.72C107.316 468.427 107.296 468.127 107.296 467.82C107.296 467.513 107.316 467.213 107.356 466.92C107.449 466.307 107.609 466 107.836 466H116.536C116.762 466 116.922 466.307 117.016 466.92C117.056 467.213 117.076 467.513 117.076 467.82C117.076 468.127 117.056 468.427 117.016 468.72C116.922 469.333 116.762 469.64 116.536 469.64H114.196V479.68ZM121.404 466.2C121.364 466.053 122.038 465.98 123.424 465.98C124.958 465.98 125.744 466.107 125.784 466.36L126.764 474.78L128.884 466.26C128.951 466.06 129.471 465.96 130.444 465.96C131.418 465.96 131.938 466.053 132.004 466.24L134.084 474.82L135.244 466.32C135.271 466.173 135.578 466.073 136.164 466.02C136.751 465.967 137.224 465.94 137.584 465.94C138.984 465.94 139.664 466.033 139.624 466.22L137.204 479.48C137.151 479.68 136.771 479.827 136.064 479.92C135.358 480.013 134.784 480.06 134.344 480.06C132.691 480.06 131.824 479.873 131.744 479.5L130.384 474L128.904 479.48C128.851 479.72 128.384 479.893 127.504 480C127.051 480.04 126.598 480.06 126.144 480.06L124.864 480C123.984 479.907 123.518 479.74 123.464 479.5L121.404 466.2ZM147.067 479.68C147.067 479.947 146.407 480.08 145.087 480.08C143.767 480.08 143.107 479.947 143.107 479.68V469.64H140.707C140.48 469.64 140.32 469.333 140.227 468.72C140.187 468.427 140.167 468.127 140.167 467.82C140.167 467.513 140.187 467.213 140.227 466.92C140.32 466.307 140.48 466 140.707 466H149.407C149.634 466 149.794 466.307 149.887 466.92C149.927 467.213 149.947 467.513 149.947 467.82C149.947 468.127 149.927 468.427 149.887 468.72C149.794 469.333 149.634 469.64 149.407 469.64H147.067V479.68ZM154.266 480.06C154.266 480.153 153.633 480.2 152.366 480.2C151.113 480.2 150.486 480.16 150.486 480.08V476.48C150.486 476.36 151.113 476.3 152.366 476.3C153.633 476.3 154.266 476.333 154.266 476.4V480.06ZM95.4591 489.54C95.6191 489.14 96.4524 488.94 97.9591 488.94C98.3457 488.94 98.8191 488.973 99.3791 489.04C99.9524 489.093 100.239 489.147 100.239 489.2L96.8391 496.12L100.359 502.74C100.399 502.807 100.112 502.873 99.4991 502.94C98.8857 502.993 98.3657 503.02 97.9391 503.02C96.2457 503.02 95.3191 502.793 95.1591 502.34L93.6591 498.52L92.2991 502.46C92.1657 502.833 91.3124 503.02 89.7391 503.02C89.3524 503.02 88.8724 502.993 88.2991 502.94C87.7257 502.887 87.4657 502.813 87.5191 502.72L90.6391 495.8L87.3991 489.2C87.3591 489.133 87.6324 489.073 88.2191 489.02C88.8191 488.953 89.3257 488.92 89.7391 488.92C91.4191 488.92 92.3391 489.16 92.4991 489.64L93.8791 493L95.4591 489.54ZM109.111 489.54C109.271 489.14 110.105 488.94 111.611 488.94C111.998 488.94 112.471 488.973 113.031 489.04C113.605 489.093 113.891 489.147 113.891 489.2L110.491 496.12L114.011 502.74C114.051 502.807 113.765 502.873 113.151 502.94C112.538 502.993 112.018 503.02 111.591 503.02C109.898 503.02 108.971 502.793 108.811 502.34L107.311 498.52L105.951 502.46C105.818 502.833 104.965 503.02 103.391 503.02C103.005 503.02 102.525 502.993 101.951 502.94C101.378 502.887 101.118 502.813 101.171 502.72L104.291 495.8L101.051 489.2C101.011 489.133 101.285 489.073 101.871 489.02C102.471 488.953 102.978 488.92 103.391 488.92C105.071 488.92 105.991 489.16 106.151 489.64L107.531 493L109.111 489.54ZM122.764 489.54C122.924 489.14 123.757 488.94 125.264 488.94C125.65 488.94 126.124 488.973 126.684 489.04C127.257 489.093 127.544 489.147 127.544 489.2L124.144 496.12L127.664 502.74C127.704 502.807 127.417 502.873 126.804 502.94C126.19 502.993 125.67 503.02 125.244 503.02C123.55 503.02 122.624 502.793 122.464 502.34L120.964 498.52L119.604 502.46C119.47 502.833 118.617 503.02 117.044 503.02C116.657 503.02 116.177 502.993 115.604 502.94C115.03 502.887 114.77 502.813 114.824 502.72L117.944 495.8L114.704 489.2C114.664 489.133 114.937 489.073 115.524 489.02C116.124 488.953 116.63 488.92 117.044 488.92C118.724 488.92 119.644 489.16 119.804 489.64L121.184 493L122.764 489.54ZM136.416 489.54C136.576 489.14 137.409 488.94 138.916 488.94C139.303 488.94 139.776 488.973 140.336 489.04C140.909 489.093 141.196 489.147 141.196 489.2L137.796 496.12L141.316 502.74C141.356 502.807 141.069 502.873 140.456 502.94C139.843 502.993 139.323 503.02 138.896 503.02C137.203 503.02 136.276 502.793 136.116 502.34L134.616 498.52L133.256 502.46C133.123 502.833 132.269 503.02 130.696 503.02C130.309 503.02 129.829 502.993 129.256 502.94C128.683 502.887 128.423 502.813 128.476 502.72L131.596 495.8L128.356 489.2C128.316 489.133 128.589 489.073 129.176 489.02C129.776 488.953 130.283 488.92 130.696 488.92C132.376 488.92 133.296 489.16 133.456 489.64L134.836 493L136.416 489.54ZM146.228 503C144.935 503 143.935 502.587 143.228 501.76C142.522 500.92 142.168 499.687 142.168 498.06C142.168 496.42 142.628 495.14 143.548 494.22C144.482 493.287 145.715 492.82 147.248 492.82C148.795 492.82 150.068 493.16 151.068 493.84V503.8C151.068 504.787 150.668 505.54 149.868 506.06C149.068 506.593 148.042 506.86 146.788 506.86C145.535 506.86 144.415 506.7 143.428 506.38C143.295 506.06 143.228 505.773 143.228 505.52C143.228 504.667 143.368 504.04 143.648 503.64C144.542 504.027 145.495 504.22 146.508 504.22C147.242 504.22 147.608 503.96 147.608 503.44V502.84C147.035 502.947 146.575 503 146.228 503ZM147.148 496.08C146.255 496.08 145.808 496.753 145.808 498.1C145.808 498.94 145.982 499.487 146.328 499.74C146.555 499.913 146.782 500 147.008 500C147.235 500 147.435 499.98 147.608 499.94V496.14C147.448 496.1 147.295 496.08 147.148 496.08Z" fill="#B9164A"/>
<path d="M27.98 34.2852C27.98 33.0985 28.1133 32.5052 28.38 32.5052L36.4 32.0852L28.28 29.6452C28.12 29.5918 28.04 29.1385 28.04 28.2852C28.04 27.4318 28.1133 26.9918 28.26 26.9652L36.48 24.4452L28.5 24.1652C28.3 24.1518 28.16 23.8985 28.08 23.4052C28.0133 22.9118 27.98 22.4985 27.98 22.1652C27.98 21.8452 28 21.5318 28.04 21.2252C28.1333 20.5852 28.3 20.2718 28.54 20.2852L41.54 20.7452C41.86 20.7452 42.02 21.5585 42.02 23.1852C42.02 23.6652 41.98 24.2518 41.9 24.9452C41.8333 25.6385 41.6933 26.0252 41.48 26.1052L35.18 28.3452L41.5 30.3052C41.8467 30.4252 42.02 31.3452 42.02 33.0652C42.02 33.5585 41.98 34.1452 41.9 34.8252C41.8333 35.5185 41.7067 35.8652 41.52 35.8652L28.4 36.4452C28.2533 36.4452 28.1467 36.1852 28.08 35.6652C28.0133 35.1452 27.98 34.6852 27.98 34.2852ZM27.96 47.8297C27.96 46.6697 28.1467 46.043 28.52 45.9497L31.1 45.2897L31.1 42.1097L28.62 41.5297C28.2067 41.4497 28 40.8097 28 39.6097C28 38.9697 28.0333 38.4964 28.1 38.1897C28.18 37.883 28.24 37.7297 28.28 37.7297L41.82 41.2697C41.9267 41.2697 41.98 42.183 41.98 44.0097C41.98 45.8364 41.9267 46.7497 41.82 46.7497L28.26 50.2097C28.1667 50.2097 28.0933 49.903 28.04 49.2897C27.9867 48.6764 27.96 48.1897 27.96 47.8297ZM33.64 42.6097L33.64 44.7097L37.78 43.8097L37.78 43.6897L33.64 42.6097ZM28.92 51.5352L40.92 51.5352C41.2533 51.5352 41.5133 51.6152 41.7 51.7752C41.9 51.9485 42 52.1685 42 52.4352L42 55.7752C42 57.8952 41.4667 59.5018 40.4 60.5952C39.3333 61.7018 37.6533 62.2552 35.36 62.2552C30.4533 62.2552 28 60.1618 28 55.9752L28 52.5552C28 51.8752 28.3067 51.5352 28.92 51.5352ZM38.2 55.3752L32.22 55.3752C31.94 55.3752 31.76 55.3952 31.68 55.4352C31.6133 55.4752 31.58 55.5952 31.58 55.7952C31.58 56.5285 31.8533 57.0818 32.4 57.4552C32.9467 57.8418 33.8533 58.0352 35.12 58.0352C36.4 58.0352 37.2333 57.8352 37.62 57.4352C38.0067 57.0485 38.2 56.4285 38.2 55.5752L38.2 55.3752ZM36.44 70.3594C36.44 70.6127 35.9733 70.7394 35.04 70.7394C34.76 70.7394 34.4267 70.706 34.04 70.6394C33.6667 70.586 33.48 70.4794 33.48 70.3194L33.48 67.7794L31.48 67.7794L31.48 71.4594C31.48 71.686 31.1867 71.8394 30.6 71.9194C30.3467 71.9594 30.0733 71.9794 29.78 71.9794C29.5 71.9794 29.1333 71.9394 28.68 71.8594C28.2267 71.7794 28 71.646 28 71.4594L28 64.6194C28 64.1127 28.2067 63.8594 28.62 63.8594L41.48 63.8594C41.8267 63.8594 42 64.0127 42 64.3194L42 71.4794C42 71.7594 41.4067 71.8994 40.22 71.8994C39.0467 71.8994 38.46 71.7594 38.46 71.4794L38.46 67.7794L36.44 67.7794L36.44 70.3594ZM41.8 76.9122C41.9467 76.8722 42.02 77.5455 42.02 78.9322C42.02 80.4655 41.8933 81.2522 41.64 81.2922L33.22 82.2722L41.74 84.3922C41.94 84.4589 42.04 84.9789 42.04 85.9522C42.04 86.9255 41.9467 87.4455 41.76 87.5122L33.18 89.5922L41.68 90.7522C41.8267 90.7789 41.9267 91.0855 41.98 91.6722C42.0333 92.2589 42.06 92.7322 42.06 93.0922C42.06 94.4922 41.9667 95.1722 41.78 95.1322L28.52 92.7122C28.32 92.6589 28.1733 92.2789 28.08 91.5722C27.9867 90.8655 27.94 90.2922 27.94 89.8522C27.94 88.1989 28.1267 87.3322 28.5 87.2522L34 85.8922L28.52 84.4122C28.28 84.3589 28.1067 83.8922 28 83.0122C27.96 82.5589 27.94 82.1055 27.94 81.6522L28 80.3722C28.0933 79.4922 28.26 79.0255 28.5 78.9722L41.8 76.9122ZM31.44 97.8747L38.56 97.8747L38.56 96.4547C38.56 96.228 38.8467 96.068 39.42 95.9747C39.7 95.9347 39.9867 95.9147 40.28 95.9147C40.5733 95.9147 40.86 95.9347 41.14 95.9747C41.7133 96.068 42 96.228 42 96.4547L42 103.175C42 103.401 41.7133 103.555 41.14 103.635C40.86 103.688 40.5733 103.715 40.28 103.715C39.9867 103.715 39.7 103.688 39.42 103.635C38.8467 103.555 38.56 103.401 38.56 103.175L38.56 101.835L31.44 101.835L31.44 103.235C31.44 103.461 31.1533 103.621 30.58 103.715C30.3 103.768 30.0133 103.795 29.72 103.795C29.4267 103.795 29.14 103.768 28.86 103.715C28.2867 103.621 28 103.461 28 103.235L28 96.4947C28 96.268 28.2867 96.1147 28.86 96.0347C29.14 95.9814 29.4267 95.9547 29.72 95.9547C30.0133 95.9547 30.3 95.9814 30.58 96.0347C31.1533 96.1147 31.44 96.268 31.44 96.4947L31.44 97.8747ZM28.32 111.149C28.0533 111.149 27.92 110.489 27.92 109.169C27.92 107.849 28.0533 107.189 28.32 107.189L38.36 107.189L38.36 104.789C38.36 104.562 38.6667 104.402 39.28 104.309C39.5733 104.269 39.8733 104.249 40.18 104.249C40.4867 104.249 40.7867 104.269 41.08 104.309C41.6933 104.402 42 104.562 42 104.789L42 113.489C42 113.716 41.6933 113.876 41.08 113.969C40.7867 114.009 40.4867 114.029 40.18 114.029C39.8733 114.029 39.5733 114.009 39.28 113.969C38.6667 113.876 38.36 113.716 38.36 113.489L38.36 111.149L28.32 111.149ZM28.34 126.048C28.1133 126.048 28 125.375 28 124.028C28 122.681 28.1133 122.008 28.34 122.008L32.94 122.008L32.94 119.208L28.34 119.208C28.1133 119.208 28 118.535 28 117.188C28 115.841 28.1133 115.168 28.34 115.168L41.6 115.168C41.88 115.168 42.02 115.841 42.02 117.188C42.02 118.535 41.88 119.208 41.6 119.208L36.9 119.208L36.9 122.008L41.56 122.008C41.7467 122.008 41.88 122.341 41.96 123.008C41.9867 123.355 42 123.695 42 124.028L41.96 125.048C41.88 125.715 41.7467 126.048 41.56 126.048L28.34 126.048ZM29.18 131.609L41.62 131.609C41.9 131.609 42.04 132.282 42.04 133.629C42.04 134.989 41.9 135.669 41.62 135.669L31.82 135.669L31.82 138.749C31.82 138.989 31.5067 139.155 30.88 139.249C30.5733 139.289 30.26 139.309 29.94 139.309C29.62 139.309 29.2933 139.289 28.96 139.249C28.32 139.142 28 138.969 28 138.729L28 132.569C28 132.275 28.12 132.042 28.36 131.869C28.6 131.695 28.8733 131.609 29.18 131.609ZM27.8 146.44C27.8 144.573 28.4133 143.047 29.64 141.86C30.8667 140.687 32.6533 140.1 35 140.1C37.36 140.1 39.1467 140.693 40.36 141.88C41.5733 143.08 42.18 144.62 42.18 146.5C42.18 148.393 41.58 149.92 40.38 151.08C39.1933 152.24 37.3867 152.82 34.96 152.82C32.5467 152.82 30.7467 152.227 29.56 151.04C28.3867 149.853 27.8 148.32 27.8 146.44ZM38.34 146.46C38.34 145.82 38.0467 145.28 37.46 144.84C36.8733 144.413 36.0467 144.2 34.98 144.2C33.9267 144.2 33.1133 144.407 32.54 144.82C31.98 145.233 31.7 145.773 31.7 146.44C31.7 147.12 31.9867 147.667 32.56 148.08C33.1333 148.507 33.9533 148.72 35.02 148.72C36.0867 148.72 36.9067 148.5 37.48 148.06C38.0533 147.633 38.34 147.1 38.34 146.46ZM28.32 160.446C28.0533 160.446 27.92 159.786 27.92 158.466C27.92 157.146 28.0533 156.486 28.32 156.486L38.36 156.486L38.36 154.086C38.36 153.859 38.6667 153.699 39.28 153.606C39.5733 153.566 39.8733 153.546 40.18 153.546C40.4867 153.546 40.7867 153.566 41.08 153.606C41.6933 153.699 42 153.859 42 154.086L42 162.786C42 163.012 41.6933 163.172 41.08 163.266C40.7867 163.306 40.4867 163.326 40.18 163.326C39.8733 163.326 39.5733 163.306 39.28 163.266C38.6667 163.172 38.36 163.012 38.36 162.786L38.36 160.446L28.32 160.446ZM32.88 164.985C32.68 165.238 32.4067 165.672 32.06 166.285C31.7133 166.912 31.54 167.505 31.54 168.065C31.54 168.638 31.76 168.925 32.2 168.925C32.4 168.925 32.5733 168.845 32.72 168.685C32.88 168.525 33.06 168.232 33.26 167.805C33.46 167.378 33.6133 167.058 33.72 166.845C33.84 166.632 34.0267 166.345 34.28 165.985C34.5467 165.638 34.82 165.372 35.1 165.185C35.86 164.652 36.8267 164.385 38 164.385C39.1733 164.385 40.16 164.818 40.96 165.685C41.7733 166.565 42.18 167.712 42.18 169.125C42.18 170.085 42.0733 170.972 41.86 171.785C41.66 172.598 41.3933 173.018 41.06 173.045C41.02 173.045 40.98 173.045 40.94 173.045C40.4733 173.045 39.88 172.898 39.16 172.605C38.4533 172.312 38.06 172.105 37.98 171.985C38.42 171.132 38.64 170.365 38.64 169.685C38.64 169.018 38.4 168.685 37.92 168.685C37.6267 168.685 37.3667 168.932 37.14 169.425C37.0867 169.532 37.0133 169.685 36.92 169.885C36.8267 170.085 36.7133 170.312 36.58 170.565C36.46 170.832 36.3 171.112 36.1 171.405C35.9133 171.712 35.66 172.038 35.34 172.385C34.6733 173.092 33.7933 173.445 32.7 173.445C31.2733 173.445 30.1067 173.052 29.2 172.265C28.2933 171.478 27.8267 170.265 27.8 168.625C27.8 167.825 27.8667 167.098 28 166.445C28.1333 165.805 28.3933 165.245 28.78 164.765C29.1667 164.285 29.6333 164.045 30.18 164.045C30.7267 164.045 31.2667 164.145 31.8 164.345C32.3467 164.545 32.7067 164.758 32.88 164.985ZM27.8 184.799C27.8 182.933 28.4133 181.406 29.64 180.219C30.8667 179.046 32.6533 178.459 35 178.459C37.36 178.459 39.1467 179.053 40.36 180.239C41.5733 181.439 42.18 182.979 42.18 184.859C42.18 186.753 41.58 188.279 40.38 189.439C39.1933 190.599 37.3867 191.179 34.96 191.179C32.5467 191.179 30.7467 190.586 29.56 189.399C28.3867 188.213 27.8 186.679 27.8 184.799ZM38.34 184.819C38.34 184.179 38.0467 183.639 37.46 183.199C36.8733 182.773 36.0467 182.559 34.98 182.559C33.9267 182.559 33.1133 182.766 32.54 183.179C31.98 183.593 31.7 184.133 31.7 184.799C31.7 185.479 31.9867 186.026 32.56 186.439C33.1333 186.866 33.9533 187.079 35.02 187.079C36.0867 187.079 36.9067 186.859 37.48 186.419C38.0533 185.993 38.34 185.459 38.34 184.819ZM42 200.265C42 200.492 41.4067 200.605 40.22 200.605C39.0467 200.605 38.46 200.492 38.46 200.265L38.46 196.605L36.18 196.605L36.18 199.045C36.18 199.272 35.66 199.385 34.62 199.385C33.5933 199.385 33.08 199.278 33.08 199.065L33.08 196.605L28.26 196.605C28.0733 196.605 27.9533 196.352 27.9 195.845C27.8333 195.352 27.8 194.938 27.8 194.605L27.84 193.665C27.92 193.012 28.0533 192.685 28.24 192.685L41.48 192.685C41.6933 192.685 41.8333 192.725 41.9 192.805C41.9667 192.898 42 193.032 42 193.205L42 200.265ZM29.18 205.788L41.62 205.788C41.9 205.788 42.04 206.462 42.04 207.808C42.04 209.168 41.9 209.848 41.62 209.848L31.82 209.848L31.82 212.928C31.82 213.168 31.5067 213.335 30.88 213.428C30.5733 213.468 30.26 213.488 29.94 213.488C29.62 213.488 29.2933 213.468 28.96 213.428C28.32 213.322 28 213.148 28 212.908L28 206.748C28 206.455 28.12 206.222 28.36 206.048C28.6 205.875 28.8733 205.788 29.18 205.788ZM27.8 220.62C27.8 218.753 28.4133 217.226 29.64 216.04C30.8667 214.866 32.6533 214.28 35 214.28C37.36 214.28 39.1467 214.873 40.36 216.06C41.5733 217.26 42.18 218.8 42.18 220.68C42.18 222.573 41.58 224.1 40.38 225.26C39.1933 226.42 37.3867 227 34.96 227C32.5467 227 30.7467 226.406 29.56 225.22C28.3867 224.033 27.8 222.5 27.8 220.62ZM38.34 220.64C38.34 220 38.0467 219.46 37.46 219.02C36.8733 218.593 36.0467 218.38 34.98 218.38C33.9267 218.38 33.1133 218.586 32.54 219C31.98 219.413 31.7 219.953 31.7 220.62C31.7 221.3 31.9867 221.846 32.56 222.26C33.1333 222.686 33.9533 222.9 35.02 222.9C36.0867 222.9 36.9067 222.68 37.48 222.24C38.0533 221.813 38.34 221.28 38.34 220.64ZM41.74 227.825C41.8067 227.825 41.8667 228.112 41.92 228.685C41.9867 229.272 42.02 229.752 42.02 230.125C42.02 231.605 41.8267 232.379 41.44 232.445L32.64 234.165L41.44 235.785C41.8267 235.865 42.02 236.692 42.02 238.265C42.02 238.652 41.9933 239.139 41.94 239.725C41.8867 240.312 41.8267 240.605 41.76 240.605L28.52 237.065C28.3067 237.012 28.1667 236.619 28.1 235.885C27.98 234.752 27.9533 233.719 28.02 232.785C28.1 231.865 28.2333 231.379 28.42 231.325L41.74 227.825ZM36.44 248.328C36.44 248.581 35.9733 248.708 35.04 248.708C34.76 248.708 34.4267 248.675 34.04 248.608C33.6667 248.555 33.48 248.448 33.48 248.288L33.48 245.748L31.48 245.748L31.48 249.428C31.48 249.655 31.1867 249.808 30.6 249.888C30.3467 249.928 30.0733 249.948 29.78 249.948C29.5 249.948 29.1333 249.908 28.68 249.828C28.2267 249.748 28 249.615 28 249.428L28 242.588C28 242.081 28.2067 241.828 28.62 241.828L41.48 241.828C41.8267 241.828 42 241.981 42 242.288L42 249.448C42 249.728 41.4067 249.868 40.22 249.868C39.0467 249.868 38.46 249.728 38.46 249.448L38.46 245.748L36.44 245.748L36.44 248.328ZM40.62 260.341C40.7133 260.421 40.76 260.534 40.76 260.681C40.76 260.828 40.6933 261.041 40.56 261.321C40.4267 261.614 40.24 261.848 40 262.021C39.76 262.208 39.58 262.301 39.46 262.301C39.3533 262.301 39.26 262.261 39.18 262.181L34.7 258.141L30.48 262.241C30.4 262.321 30.3 262.361 30.18 262.361C30.0733 262.361 29.8933 262.268 29.64 262.081C29.4 261.894 29.2133 261.661 29.08 261.381C28.96 261.101 28.9 260.888 28.9 260.741C28.9 260.608 28.9467 260.494 29.04 260.401L34.16 255.781C34.3467 255.594 34.5133 255.501 34.66 255.501C34.8067 255.501 34.9467 255.568 35.08 255.701L40.62 260.341ZM29.32 264.548C29.6933 264.548 30.1133 264.642 30.58 264.828C31.06 265.015 31.44 265.195 31.72 265.368C32.0133 265.542 32.16 265.642 32.16 265.668C31.6933 266.442 31.46 267.255 31.46 268.108C31.46 268.642 31.5667 269.068 31.78 269.388C31.9933 269.722 32.2867 269.888 32.66 269.888C33.0467 269.888 33.2933 269.735 33.4 269.428C33.5067 269.135 33.58 268.662 33.62 268.008L33.62 267.288C33.62 267.128 33.8133 266.975 34.2 266.828C34.6 266.695 34.9867 266.628 35.36 266.628C35.9867 266.628 36.3067 266.815 36.32 267.188L36.34 267.768C36.34 268.128 36.44 268.502 36.64 268.888C36.8533 269.288 37.12 269.488 37.44 269.488C38 269.488 38.28 268.988 38.28 267.988C38.28 267.242 38.1333 266.522 37.84 265.828C38.92 265.228 39.76 264.928 40.36 264.928C40.9733 264.928 41.4333 265.348 41.74 266.188C42.0467 267.042 42.2 268.108 42.2 269.388C42.2 270.668 41.9333 271.668 41.4 272.388C40.8667 273.108 40.14 273.468 39.22 273.468C37.6067 273.468 36.3667 272.775 35.5 271.388C34.82 273.068 33.6667 273.908 32.04 273.908C30.7733 273.908 29.7467 273.462 28.96 272.568C28.1867 271.675 27.8 270.395 27.8 268.728C27.8 267.675 27.9467 266.715 28.24 265.848C28.5467 264.982 28.9067 264.548 29.32 264.548Z" fill="#B9164A"/>
<rect x="22" y="350" width="27" height="154" fill="white"/>
<path d="M33 353.383L44.8 353.383L44.8 354.583L33 354.583L33 353.383ZM33 355.183L44.8 355.183L44.8 356.983L33 356.983L33 355.183ZM33 358.783L44.8 358.783L44.8 359.383L33 359.383L33 358.783ZM30.8 356.363L30.8 355.063L31.26 355.063L31.26 358.263L30.8 358.263L30.8 356.903L26.62 356.903L26.62 356.363L30.8 356.363ZM33 359.984L44.8 359.984L44.8 360.584L33 360.584L33 359.984ZM33 362.384L44.8 362.384L44.8 364.184L33 364.184L33 362.384ZM33 364.784L44.8 364.784L44.8 365.984L33 365.984L33 364.784ZM26.54 363.284C26.54 362.751 26.7467 362.344 27.16 362.064C27.5733 361.771 28.16 361.624 28.92 361.624C29.6533 361.624 30.2333 361.771 30.66 362.064C31.0733 362.358 31.28 362.764 31.28 363.284C31.28 363.804 31.0733 364.211 30.66 364.504C30.2333 364.798 29.6533 364.944 28.92 364.944C28.16 364.944 27.5733 364.798 27.16 364.504C26.7467 364.224 26.54 363.818 26.54 363.284ZM27 363.284C27 363.644 27.16 363.918 27.48 364.104C27.8133 364.304 28.2933 364.404 28.92 364.404C29.5067 364.404 29.9733 364.304 30.32 364.104C30.6533 363.904 30.82 363.631 30.82 363.284C30.82 362.938 30.6533 362.664 30.32 362.464C29.9733 362.264 29.5067 362.164 28.92 362.164C28.2933 362.164 27.8133 362.258 27.48 362.444C27.16 362.644 27 362.924 27 363.284ZM33 366.586L44.8 366.586L44.8 367.786L33 367.786L33 366.586ZM33 368.386L44.8 368.386L44.8 369.586L33 369.586L33 368.386ZM33 370.786L44.8 370.786L44.8 371.986L33 371.986L33 370.786ZM33 373.187L44.8 373.187L44.8 373.788L33 373.787L33 373.187ZM33 375.587L44.8 375.588L44.8 376.188L33 376.187L33 375.587ZM33 377.987L44.8 377.988L44.8 379.188L33 379.187L33 377.987ZM26.54 376.747C26.54 376.401 26.6267 376.094 26.8 375.827C26.9733 375.547 27.2333 375.327 27.58 375.167C27.94 375.007 28.3867 374.927 28.92 374.927C29.48 374.927 29.94 375.014 30.3 375.187C30.6467 375.361 30.9 375.581 31.06 375.847C31.2067 376.114 31.28 376.401 31.28 376.707C31.28 377.041 31.2 377.327 31.04 377.567C30.88 377.807 30.66 377.987 30.38 378.107L30.16 377.667L30.14 377.607L30.18 377.587L30.24 377.587C30.2933 377.587 30.3667 377.554 30.46 377.487C30.6067 377.381 30.7133 377.261 30.78 377.127C30.8467 376.994 30.88 376.854 30.88 376.707C30.88 376.307 30.7067 375.994 30.36 375.767C30.0267 375.554 29.5533 375.447 28.94 375.447C28.5667 375.447 28.2267 375.501 27.92 375.607C27.6267 375.727 27.4 375.881 27.24 376.067C27.08 376.267 27 376.487 27 376.727C27 376.914 27.0467 377.087 27.14 377.247C27.2467 377.421 27.3867 377.561 27.56 377.667L27.3 378.047C27.0467 377.887 26.86 377.707 26.74 377.507C26.6067 377.294 26.54 377.041 26.54 376.747ZM33 379.789L44.8 379.789L44.8 380.989L33 380.989L33 379.789ZM33 381.589L44.8 381.589L44.8 383.389L33 383.389L33 381.589ZM33 383.989L44.8 383.989L44.8 385.789L33 385.789L33 383.989ZM26.54 383.089C26.54 382.609 26.6867 382.242 26.98 381.989C27.2733 381.736 27.6867 381.609 28.22 381.609L31.26 381.609L31.26 382.189L31.2 382.189C31.1733 382.149 31.14 382.129 31.1 382.129C31.0733 382.116 31.0133 382.109 30.92 382.109L28.22 382.109C27.82 382.109 27.5133 382.189 27.3 382.349C27.0867 382.496 26.98 382.749 26.98 383.109C26.98 383.456 27.0867 383.709 27.3 383.869C27.5133 384.029 27.8267 384.109 28.24 384.109L31.26 384.109L31.26 384.609L28.24 384.609C27.6667 384.609 27.24 384.476 26.96 384.209C26.68 383.942 26.54 383.569 26.54 383.089ZM33 386.391L44.8 386.391L44.8 387.591L33 387.591L33 386.391ZM33 388.191L44.8 388.191L44.8 389.991L33 389.991L33 388.191ZM33 391.791L44.8 391.791L44.8 392.391L33 392.391L33 391.791ZM30.8 389.371L30.8 388.071L31.26 388.071L31.26 391.271L30.8 391.271L30.8 389.911L26.62 389.911L26.62 389.371L30.8 389.371ZM33 392.992L44.8 392.992L44.8 394.192L33 394.192L33 392.992ZM33 395.992L44.8 395.992L44.8 396.592L33 396.592L33 395.992ZM33 398.392L44.8 398.392L44.8 398.992L33 398.992L33 398.392ZM27.06 395.032L27.06 395.952L30.82 395.952L30.82 395.092L31.26 395.092L31.26 397.392L30.82 397.392L30.82 396.472L27.06 396.472L27.06 397.432L26.62 397.432L26.62 395.032L27.06 395.032ZM33 399.594L44.8 399.594L44.8 401.394L33 401.394L33 399.594ZM33 401.994L44.8 401.994L44.8 403.794L33 403.794L33 401.994ZM33 404.394L44.8 404.394L44.8 405.594L33 405.594L33 404.394ZM31.26 401.474L31.26 402.954C31.26 403.447 31.1333 403.814 30.88 404.054C30.64 404.307 30.3267 404.434 29.94 404.434C29.5667 404.434 29.26 404.314 29.02 404.074C28.78 403.834 28.66 403.474 28.66 402.994L28.66 402.014L26.62 402.014L26.62 401.474L31.26 401.474ZM29.12 402.934C29.12 403.267 29.1933 403.507 29.34 403.654C29.4733 403.814 29.6667 403.894 29.92 403.894C30.1733 403.894 30.3733 403.814 30.52 403.654C30.68 403.494 30.76 403.26 30.76 402.954L30.76 402.014L29.12 402.014L29.12 402.934ZM33 406.195L44.8 406.195L44.8 407.395L33 407.395L33 406.195ZM33 409.195L44.8 409.195L44.8 409.795L33 409.795L33 409.195ZM33 411.595L44.8 411.595L44.8 412.195L33 412.195L33 411.595ZM27.06 408.235L27.06 409.155L30.82 409.155L30.82 408.295L31.26 408.295L31.26 410.595L30.82 410.595L30.82 409.675L27.06 409.675L27.06 410.635L26.62 410.635L26.62 408.235L27.06 408.235ZM33 412.797L44.8 412.797L44.8 413.397L33 413.397L33 412.797ZM33 415.197L44.8 415.197L44.8 416.397L33 416.397L33 415.197ZM33 416.997L44.8 416.997L44.8 417.597L33 417.597L33 416.997ZM31.26 414.677L31.26 417.517L30.8 417.517L30.8 415.157L29.28 415.157L29.28 417.117L28.8 417.117L28.8 415.157L27.08 415.157L27.08 417.497L26.62 417.497L26.62 414.677L31.26 414.677ZM33 419.398L44.8 419.398L44.8 420.598L33 420.598L33 419.398ZM33 421.198L44.8 421.198L44.8 422.398L33 422.398L33 421.198ZM33 423.598L44.8 423.598L44.8 424.798L33 424.798L33 423.598ZM33 426L44.8 426L44.8 426.6L33 426.6L33 426ZM33 428.4L44.8 428.4L44.8 429.6L33 429.6L33 428.4ZM33 431.4L44.8 431.4L44.8 432L33 432L33 431.4ZM31.26 428.02L31.26 430.68L30.8 430.68L30.8 428.54L29.34 428.54L29.34 430.28L28.9 430.28L28.9 428.54L26.62 428.54L26.62 428.02L31.26 428.02ZM33 432.602L44.8 432.602L44.8 433.802L33 433.802L33 432.602ZM33 435.602L44.8 435.602L44.8 436.202L33 436.202L33 435.602ZM33 436.802L44.8 436.802L44.8 438.602L33 438.602L33 436.802ZM31.26 434.462L31.26 435.822C31.26 436.355 31.14 436.742 30.9 436.982C30.6733 437.235 30.3467 437.362 29.92 437.362C29.6533 437.362 29.4 437.275 29.16 437.102C28.92 436.928 28.76 436.702 28.68 436.422L26.62 437.502L26.62 436.922L28.66 435.882L28.66 434.982L26.62 434.982L26.62 434.462L31.26 434.462ZM29.12 435.882C29.12 436.202 29.1933 436.442 29.34 436.602C29.4733 436.748 29.6667 436.822 29.92 436.822C30.1733 436.822 30.38 436.748 30.54 436.602C30.6867 436.442 30.76 436.202 30.76 435.882L30.76 434.982L29.12 434.982L29.12 435.882ZM33 439.203L44.8 439.203L44.8 439.803L33 439.803L33 439.203ZM33 441.603L44.8 441.603L44.8 443.403L33 443.403L33 441.603ZM33 444.003L44.8 444.003L44.8 445.203L33 445.203L33 444.003ZM26.54 442.503C26.54 441.97 26.7467 441.563 27.16 441.283C27.5733 440.99 28.16 440.843 28.92 440.843C29.6533 440.843 30.2333 440.99 30.66 441.283C31.0733 441.576 31.28 441.983 31.28 442.503C31.28 443.023 31.0733 443.43 30.66 443.723C30.2333 444.016 29.6533 444.163 28.92 444.163C28.16 444.163 27.5733 444.016 27.16 443.723C26.7467 443.443 26.54 443.036 26.54 442.503ZM27 442.503C27 442.863 27.16 443.136 27.48 443.323C27.8133 443.523 28.2933 443.623 28.92 443.623C29.5067 443.623 29.9733 443.523 30.32 443.323C30.6533 443.123 30.82 442.85 30.82 442.503C30.82 442.156 30.6533 441.883 30.32 441.683C29.9733 441.483 29.5067 441.383 28.92 441.383C28.2933 441.383 27.8133 441.476 27.48 441.663C27.16 441.863 27 442.143 27 442.503ZM33 445.805L44.8 445.805L44.8 446.405L33 446.405L33 445.805ZM33 447.005L44.8 447.005L44.8 448.805L33 448.805L33 447.005ZM33 449.405L44.8 449.405L44.8 450.605L33 450.605L33 449.405ZM31.26 447.545L31.26 447.965L28.98 449.105L31.26 450.265L31.26 450.665L26.62 450.665L26.62 450.165L30.12 450.165L28.24 449.165L28.24 448.965L30.1 448.025L26.62 448.025L26.62 447.545L31.26 447.545ZM33 452.406L44.8 452.406L44.8 453.606L33 453.606L33 452.406ZM33 454.206L44.8 454.206L44.8 455.406L33 455.406L33 454.206ZM33 456.606L44.8 456.606L44.8 457.806L33 457.806L33 456.606ZM33 459.008L44.8 459.008L44.8 459.608L33 459.608L33 459.008ZM33 460.208L44.8 460.208L44.8 462.008L33 462.008L33 460.208ZM33 462.608L44.8 462.608L44.8 463.808L33 463.808L33 462.608ZM31.26 460.748L31.26 461.168L28.98 462.308L31.26 463.468L31.26 463.868L26.62 463.868L26.62 463.368L30.12 463.368L28.24 462.368L28.24 462.168L30.1 461.228L26.62 461.228L26.62 460.748L31.26 460.748ZM33 465.609L44.8 465.609L44.8 466.209L33 466.209L33 465.609ZM33 468.009L44.8 468.009L44.8 469.209L33 469.209L33 468.009ZM33 469.809L44.8 469.809L44.8 470.409L33 470.409L33 469.809ZM31.26 467.489L31.26 470.329L30.8 470.329L30.8 467.969L29.28 467.969L29.28 469.929L28.8 469.929L28.8 467.969L27.08 467.969L27.08 470.309L26.62 470.309L26.62 467.489L31.26 467.489ZM33 472.211L44.8 472.211L44.8 472.811L33 472.811L33 472.211ZM33 474.611L44.8 474.611L44.8 475.811L33 475.811L33 474.611ZM33 476.411L44.8 476.411L44.8 477.011L33 477.011L33 476.411ZM31.26 474.091L31.26 476.931L30.8 476.931L30.8 474.571L29.28 474.571L29.28 476.531L28.8 476.531L28.8 474.571L27.08 474.571L27.08 476.911L26.62 476.911L26.62 474.091L31.26 474.091ZM33 478.812L44.8 478.812L44.8 479.413L33 479.412L33 478.812ZM33 481.212L44.8 481.213L44.8 482.413L33 482.412L33 481.212ZM33 483.012L44.8 483.013L44.8 483.613L33 483.612L33 483.012ZM31.26 480.692L31.26 483.532L30.8 483.532L30.8 481.172L29.28 481.172L29.28 483.132L28.8 483.132L28.8 481.172L27.08 481.172L27.08 483.512L26.62 483.512L26.62 480.692L31.26 480.692ZM33 485.414L44.8 485.414L44.8 486.014L33 486.014L33 485.414ZM33 487.814L44.8 487.814L44.8 489.014L33 489.014L33 487.814ZM33 489.614L44.8 489.614L44.8 490.214L33 490.214L33 489.614ZM31.26 487.294L31.26 490.134L30.8 490.134L30.8 487.774L29.28 487.774L29.28 489.734L28.8 489.734L28.8 487.774L27.08 487.774L27.08 490.114L26.62 490.114L26.62 487.294L31.26 487.294ZM33 492.016L44.8 492.016L44.8 492.616L33 492.616L33 492.016ZM33 494.416L44.8 494.416L44.8 495.616L33 495.616L33 494.416ZM33 496.216L44.8 496.216L44.8 496.816L33 496.816L33 496.216ZM31.26 493.896L31.26 496.736L30.8 496.736L30.8 494.376L29.28 494.376L29.28 496.336L28.8 496.336L28.8 494.376L27.08 494.376L27.08 496.716L26.62 496.716L26.62 493.896L31.26 493.896Z" fill="#B9164A"/>
</g>
<defs>
<filter id="filter0_d_66_2" x="0" y="0" width="469" height="535" filterUnits="userSpaceOnUse" color-interpolation-filters="sRGB">
<feFlood flood-opacity="0" result="BackgroundImageFix"/>
<feColorMatrix in="SourceAlpha" type="matrix" values="0 0 0 0 0 0 0 0 0 0 0 0 0 0 0 0 0 0 127 0" result="hardAlpha"/>
<feOffset dy="4"/>
<feGaussianBlur stdDeviation="2"/>
<feComposite in2="hardAlpha" operator="out"/>
<feColorMatrix type="matrix" values="0 0 0 0 0 0 0 0 0 0 0 0 0 0 0 0 0 0 0.25 0"/>
<feBlend mode="normal" in2="BackgroundImageFix" result="effect1_dropShadow_66_2"/>
<feBlend mode="normal" in="SourceGraphic" in2="effect1_dropShadow_66_2" result="shape"/>
</filter>
<filter id="filter1_d_66_2" x="285.643" y="140.945" width="108.212" height="109.12" filterUnits="userSpaceOnUse" color-interpolation-filters="sRGB">
<feFlood flood-opacity="0" result="BackgroundImageFix"/>
<feColorMatrix in="SourceAlpha" type="matrix" values="0 0 0 0 0 0 0 0 0 0 0 0 0 0 0 0 0 0 127 0" result="hardAlpha"/>
<feOffset dy="4"/>
<feGaussianBlur stdDeviation="2"/>
<feComposite in2="hardAlpha" operator="out"/>
<feColorMatrix type="matrix" values="0 0 0 0 0 0 0 0 0 0 0 0 0 0 0 0 0 0 0.25 0"/>
<feBlend mode="normal" in2="BackgroundImageFix" result="effect1_dropShadow_66_2"/>
<feBlend mode="normal" in="SourceGraphic" in2="effect1_dropShadow_66_2" result="shape"/>
</filter>
<filter id="filter2_d_66_2" x="187" y="147" width="111" height="107" filterUnits="userSpaceOnUse" color-interpolation-filters="sRGB">
<feFlood flood-opacity="0" result="BackgroundImageFix"/>
<feColorMatrix in="SourceAlpha" type="matrix" values="0 0 0 0 0 0 0 0 0 0 0 0 0 0 0 0 0 0 127 0" result="hardAlpha"/>
<feOffset dy="4"/>
<feGaussianBlur stdDeviation="2"/>
<feComposite in2="hardAlpha" operator="out"/>
<feColorMatrix type="matrix" values="0 0 0 0 0 0 0 0 0 0 0 0 0 0 0 0 0 0 0.25 0"/>
<feBlend mode="normal" in2="BackgroundImageFix" result="effect1_dropShadow_66_2"/>
<feBlend mode="normal" in="SourceGraphic" in2="effect1_dropShadow_66_2" result="shape"/>
</filter>
<filter id="filter3_d_66_2" x="224" y="338" width="111" height="107" filterUnits="userSpaceOnUse" color-interpolation-filters="sRGB">
<feFlood flood-opacity="0" result="BackgroundImageFix"/>
<feColorMatrix in="SourceAlpha" type="matrix" values="0 0 0 0 0 0 0 0 0 0 0 0 0 0 0 0 0 0 127 0" result="hardAlpha"/>
<feOffset dy="4"/>
<feGaussianBlur stdDeviation="2"/>
<feComposite in2="hardAlpha" operator="out"/>
<feColorMatrix type="matrix" values="0 0 0 0 0 0 0 0 0 0 0 0 0 0 0 0 0 0 0.25 0"/>
<feBlend mode="normal" in2="BackgroundImageFix" result="effect1_dropShadow_66_2"/>
<feBlend mode="normal" in="SourceGraphic" in2="effect1_dropShadow_66_2" result="shape"/>
</filter>
<filter id="filter4_d_66_2" x="294.857" y="228.535" width="110.589" height="109.837" filterUnits="userSpaceOnUse" color-interpolation-filters="sRGB">
<feFlood flood-opacity="0" result="BackgroundImageFix"/>
<feColorMatrix in="SourceAlpha" type="matrix" values="0 0 0 0 0 0 0 0 0 0 0 0 0 0 0 0 0 0 127 0" result="hardAlpha"/>
<feOffset dy="4"/>
<feGaussianBlur stdDeviation="2"/>
<feComposite in2="hardAlpha" operator="out"/>
<feColorMatrix type="matrix" values="0 0 0 0 0 0 0 0 0 0 0 0 0 0 0 0 0 0 0.25 0"/>
<feBlend mode="normal" in2="BackgroundImageFix" result="effect1_dropShadow_66_2"/>
<feBlend mode="normal" in="SourceGraphic" in2="effect1_dropShadow_66_2" result="shape"/>
</filter>
<filter id="filter5_d_66_2" x="192" y="232" width="111" height="107" filterUnits="userSpaceOnUse" color-interpolation-filters="sRGB">
<feFlood flood-opacity="0" result="BackgroundImageFix"/>
<feColorMatrix in="SourceAlpha" type="matrix" values="0 0 0 0 0 0 0 0 0 0 0 0 0 0 0 0 0 0 127 0" result="hardAlpha"/>
<feOffset dy="4"/>
<feGaussianBlur stdDeviation="2"/>
<feComposite in2="hardAlpha" operator="out"/>
<feColorMatrix type="matrix" values="0 0 0 0 0 0 0 0 0 0 0 0 0 0 0 0 0 0 0.25 0"/>
<feBlend mode="normal" in2="BackgroundImageFix" result="effect1_dropShadow_66_2"/>
<feBlend mode="normal" in="SourceGraphic" in2="effect1_dropShadow_66_2" result="shape"/>
</filter>
<filter id="filter6_d_66_2" x="130.854" y="163.723" width="107.787" height="107.094" filterUnits="userSpaceOnUse" color-interpolation-filters="sRGB">
<feFlood flood-opacity="0" result="BackgroundImageFix"/>
<feColorMatrix in="SourceAlpha" type="matrix" values="0 0 0 0 0 0 0 0 0 0 0 0 0 0 0 0 0 0 127 0" result="hardAlpha"/>
<feOffset dy="4"/>
<feGaussianBlur stdDeviation="2"/>
<feComposite in2="hardAlpha" operator="out"/>
<feColorMatrix type="matrix" values="0 0 0 0 0 0 0 0 0 0 0 0 0 0 0 0 0 0 0.25 0"/>
<feBlend mode="normal" in2="BackgroundImageFix" result="effect1_dropShadow_66_2"/>
<feBlend mode="normal" in="SourceGraphic" in2="effect1_dropShadow_66_2" result="shape"/>
</filter>
<filter id="filter7_d_66_2" x="249.052" y="272.833" width="110.142" height="110.518" filterUnits="userSpaceOnUse" color-interpolation-filters="sRGB">
<feFlood flood-opacity="0" result="BackgroundImageFix"/>
<feColorMatrix in="SourceAlpha" type="matrix" values="0 0 0 0 0 0 0 0 0 0 0 0 0 0 0 0 0 0 127 0" result="hardAlpha"/>
<feOffset dy="4"/>
<feGaussianBlur stdDeviation="2"/>
<feComposite in2="hardAlpha" operator="out"/>
<feColorMatrix type="matrix" values="0 0 0 0 0 0 0 0 0 0 0 0 0 0 0 0 0 0 0.25 0"/>
<feBlend mode="normal" in2="BackgroundImageFix" result="effect1_dropShadow_66_2"/>
<feBlend mode="normal" in="SourceGraphic" in2="effect1_dropShadow_66_2" result="shape"/>
</filter>
<filter id="filter8_d_66_2" x="156.585" y="282.89" width="107.209" height="107.847" filterUnits="userSpaceOnUse" color-interpolation-filters="sRGB">
<feFlood flood-opacity="0" result="BackgroundImageFix"/>
<feColorMatrix in="SourceAlpha" type="matrix" values="0 0 0 0 0 0 0 0 0 0 0 0 0 0 0 0 0 0 127 0" result="hardAlpha"/>
<feOffset dy="4"/>
<feGaussianBlur stdDeviation="2"/>
<feComposite in2="hardAlpha" operator="out"/>
<feColorMatrix type="matrix" values="0 0 0 0 0 0 0 0 0 0 0 0 0 0 0 0 0 0 0.25 0"/>
<feBlend mode="normal" in2="BackgroundImageFix" result="effect1_dropShadow_66_2"/>
<feBlend mode="normal" in="SourceGraphic" in2="effect1_dropShadow_66_2" result="shape"/>
</filter>
<filter id="filter9_d_66_2" x="116" y="227" width="111" height="107" filterUnits="userSpaceOnUse" color-interpolation-filters="sRGB">
<feFlood flood-opacity="0" result="BackgroundImageFix"/>
<feColorMatrix in="SourceAlpha" type="matrix" values="0 0 0 0 0 0 0 0 0 0 0 0 0 0 0 0 0 0 127 0" result="hardAlpha"/>
<feOffset dy="4"/>
<feGaussianBlur stdDeviation="2"/>
<feComposite in2="hardAlpha" operator="out"/>
<feColorMatrix type="matrix" values="0 0 0 0 0 0 0 0 0 0 0 0 0 0 0 0 0 0 0.25 0"/>
<feBlend mode="normal" in2="BackgroundImageFix" result="effect1_dropShadow_66_2"/>
<feBlend mode="normal" in="SourceGraphic" in2="effect1_dropShadow_66_2" result="shape"/>
</filter>
<filter id="filter10_d_66_2" x="248.353" y="176.544" width="108.867" height="110.559" filterUnits="userSpaceOnUse" color-interpolation-filters="sRGB">
<feFlood flood-opacity="0" result="BackgroundImageFix"/>
<feColorMatrix in="SourceAlpha" type="matrix" values="0 0 0 0 0 0 0 0 0 0 0 0 0 0 0 0 0 0 127 0" result="hardAlpha"/>
<feOffset dy="4"/>
<feGaussianBlur stdDeviation="2"/>
<feComposite in2="hardAlpha" operator="out"/>
<feColorMatrix type="matrix" values="0 0 0 0 0 0 0 0 0 0 0 0 0 0 0 0 0 0 0.25 0"/>
<feBlend mode="normal" in2="BackgroundImageFix" result="effect1_dropShadow_66_2"/>
<feBlend mode="normal" in="SourceGraphic" in2="effect1_dropShadow_66_2" result="shape"/>
</filter>
</defs>
</svg>
