<svg width="111" height="107" viewBox="0 0 111 107" fill="none" xmlns="http://www.w3.org/2000/svg">
<g filter="url(#filter0_d_7_206)">
<path d="M56.9389 99C-23.8396 52.022 3.21443 -29.0151 56.9389 11.3077C87.6386 -23.9258 152.3 28.1415 56.9389 99Z" fill="#FA5D81"/>
<path d="M56.9398 11.3077C3.21532 -29.0151 -27.2777 50.0219 53.5009 97C68.8653 85.5833 90.0009 58 90.0009 58C115.001 20.5 84.5009 -19 56.9398 11.3077Z" fill="#FB92AB"/>
<path d="M15.8566 44.3361L15.8566 31.8961C15.8566 31.6161 16.53 31.4761 17.8766 31.4761C19.2366 31.4761 19.9166 31.6161 19.9166 31.8961V41.6961H22.9966C23.2366 41.6961 23.4033 42.0094 23.4966 42.6361C23.5366 42.9428 23.5566 43.2561 23.5566 43.5761C23.5566 43.8961 23.5366 44.2228 23.4966 44.5561C23.39 45.1961 23.2166 45.5161 22.9766 45.5161H16.8166C16.5233 45.5161 16.29 45.3961 16.1166 45.1561C15.9433 44.9161 15.8566 44.6428 15.8566 44.3361ZM30.688 45.7161C28.8214 45.7161 27.2947 45.1028 26.108 43.8761C24.9347 42.6494 24.348 40.8628 24.348 38.5161C24.348 36.1561 24.9414 34.3694 26.128 33.1561C27.328 31.9428 28.868 31.3361 30.748 31.3361C32.6414 31.3361 34.168 31.9361 35.328 33.1361C36.488 34.3228 37.068 36.1294 37.068 38.5561C37.068 40.9694 36.4747 42.7694 35.288 43.9561C34.1014 45.1294 32.568 45.7161 30.688 45.7161ZM30.708 35.1761C30.068 35.1761 29.528 35.4694 29.088 36.0561C28.6614 36.6428 28.448 37.4694 28.448 38.5361C28.448 39.5894 28.6547 40.4028 29.068 40.9761C29.4814 41.5361 30.0214 41.8161 30.688 41.8161C31.368 41.8161 31.9147 41.5294 32.328 40.9561C32.7547 40.3828 32.968 39.5628 32.968 38.4961C32.968 37.4294 32.748 36.6094 32.308 36.0361C31.8814 35.4628 31.348 35.1761 30.708 35.1761ZM37.8938 31.7761C37.8938 31.7094 38.1805 31.6494 38.7538 31.5961C39.3405 31.5294 39.8205 31.4961 40.1938 31.4961C41.6738 31.4961 42.4472 31.6894 42.5138 32.0761L44.2338 40.8761L45.8538 32.0761C45.9338 31.6894 46.7605 31.4961 48.3338 31.4961C48.7205 31.4961 49.2072 31.5228 49.7938 31.5761C50.3805 31.6294 50.6738 31.6894 50.6738 31.7561L47.1338 44.9961C47.0805 45.2094 46.6872 45.3494 45.9538 45.4161C44.8205 45.5361 43.7872 45.5628 42.8538 45.4961C41.9338 45.4161 41.4472 45.2828 41.3938 45.0961L37.8938 31.7761ZM58.3965 37.0761C58.6498 37.0761 58.7765 37.5428 58.7765 38.4761C58.7765 38.7561 58.7432 39.0894 58.6765 39.4761C58.6232 39.8494 58.5165 40.0361 58.3565 40.0361H55.8165V42.0361H59.4965C59.7232 42.0361 59.8765 42.3294 59.9565 42.9161C59.9965 43.1694 60.0165 43.4428 60.0165 43.7361C60.0165 44.0161 59.9765 44.3828 59.8965 44.8361C59.8165 45.2894 59.6832 45.5161 59.4965 45.5161H52.6565C52.1498 45.5161 51.8965 45.3094 51.8965 44.8961V32.0361C51.8965 31.6894 52.0498 31.5161 52.3565 31.5161L59.5165 31.5161C59.7965 31.5161 59.9365 32.1094 59.9365 33.2961C59.9365 34.4694 59.7965 35.0561 59.5165 35.0561H55.8165V37.0761H58.3965ZM72.4893 32.1761C72.6626 31.7094 73.516 31.4761 75.0493 31.4761C75.436 31.4761 75.8893 31.5028 76.4093 31.5561C76.9426 31.6094 77.1893 31.6761 77.1493 31.7561L72.9893 40.1161V44.9961C72.9893 45.2228 72.6226 45.3828 71.8893 45.4761C71.516 45.5294 71.1493 45.5561 70.7893 45.5561C70.4293 45.5561 70.0693 45.5361 69.7093 45.4961C68.976 45.4028 68.6093 45.2361 68.6093 44.9961V40.2361L64.3093 31.7961C64.256 31.7161 64.5293 31.6428 65.1293 31.5761C65.7293 31.4961 66.236 31.4561 66.6493 31.4561C68.2893 31.4561 69.1893 31.6961 69.3493 32.1761L70.8093 36.2561L72.4893 32.1761ZM86.2379 45.5561C85.0779 45.5561 84.4512 45.3694 84.3579 44.9961L83.6979 42.4161H80.5179L79.9379 44.8961C79.8579 45.3094 79.2179 45.5161 78.0179 45.5161C77.3779 45.5161 76.9046 45.4828 76.5979 45.4161C76.2912 45.3361 76.1379 45.2761 76.1379 45.2361L79.6779 31.6961C79.6779 31.5894 80.5912 31.5361 82.4179 31.5361C84.2446 31.5361 85.1579 31.5894 85.1579 31.6961L88.6179 45.2561C88.6179 45.3494 88.3112 45.4228 87.6979 45.4761C87.0846 45.5294 86.5979 45.5561 86.2379 45.5561ZM81.0179 39.8761H83.1179L82.2179 35.7361H82.0979L81.0179 39.8761Z" fill="white"/>
</g>
<defs>
<filter id="filter0_d_7_206" x="0" y="0" width="111" height="107" filterUnits="userSpaceOnUse" color-interpolation-filters="sRGB">
<feFlood flood-opacity="0" result="BackgroundImageFix"/>
<feColorMatrix in="SourceAlpha" type="matrix" values="0 0 0 0 0 0 0 0 0 0 0 0 0 0 0 0 0 0 127 0" result="hardAlpha"/>
<feOffset dy="4"/>
<feGaussianBlur stdDeviation="2"/>
<feComposite in2="hardAlpha" operator="out"/>
<feColorMatrix type="matrix" values="0 0 0 0 0 0 0 0 0 0 0 0 0 0 0 0 0 0 0.25 0"/>
<feBlend mode="normal" in2="BackgroundImageFix" result="effect1_dropShadow_7_206"/>
<feBlend mode="normal" in="SourceGraphic" in2="effect1_dropShadow_7_206" result="shape"/>
</filter>
</defs>
</svg>
