<svg width="148" height="145" viewBox="0 0 148 145" fill="none" xmlns="http://www.w3.org/2000/svg">
<g filter="url(#filter0_d_9_106)">
<path d="M59.1114 128.145C-15.4652 48.8308 41.688 -32.6592 88.2691 30.2284C134.263 1.09448 189.151 80.7323 59.1114 128.145Z" fill="#FA5D81"/>
<path d="M88.27 30.2282C41.6889 -32.6594 -18.6391 45.454 55.9374 124.768C76.8893 117.129 109.661 93.3573 109.661 93.3573C150.044 59.7976 129.122 5.55087 88.27 30.2282Z" fill="#FB92AB"/>
<path d="M66.2006 54.4139C66.4073 54.2807 66.6511 54.2559 66.9323 54.3396C67.2134 54.4233 67.5843 54.6729 68.0449 55.0883C68.531 55.5113 68.8718 56.0023 69.067 56.5613C69.2878 57.1279 69.364 57.5262 69.2955 57.7562C69.2346 57.9606 69.1047 58.1167 68.9057 58.2244L58.6046 64.5057L64.0548 74.935C64.1625 75.134 64.1821 75.3485 64.1136 75.5785C64.0527 75.783 63.771 76.0747 63.2686 76.4538C62.7738 76.8073 62.22 77.0319 61.6072 77.1276C61.002 77.1978 60.5588 77.1911 60.2777 77.1074C60.0221 77.0313 59.8315 76.8771 59.7059 76.6449L53.7726 64.1938C53.5214 63.7294 53.4376 63.3567 53.5213 63.0755C53.605 62.7944 53.8127 62.5641 54.1444 62.3846L66.2006 54.4139ZM67.8157 78.4756C68.0288 77.76 68.4474 77.0082 69.0716 76.2202C69.7034 75.4067 70.2653 74.781 70.7574 74.3433C71.2571 73.8799 71.5325 73.6559 71.5836 73.6711C72.7996 75.007 74.2254 75.9185 75.8611 76.4056C76.8834 76.71 77.7621 76.7491 78.4973 76.5228C79.258 76.3042 79.7449 75.837 79.958 75.1214C80.1787 74.3803 80.0256 73.8199 79.4986 73.4404C78.9972 73.0685 78.1318 72.6578 76.9023 72.2082L75.5222 71.7972C75.2155 71.7059 75.032 71.2478 74.9715 70.4229C74.9443 69.5801 75.0372 68.8009 75.2503 68.0852C75.608 66.884 76.1484 66.3772 76.8717 66.5647L77.9948 66.8575C78.6849 67.0629 79.4576 67.0844 80.3129 66.9217C81.2014 66.7411 81.737 66.3441 81.9196 65.7307C82.2393 64.6573 81.4407 63.8352 79.5239 63.2644C78.0926 62.8382 76.6288 62.7084 75.1324 62.8749C74.5988 60.4623 74.5032 58.6809 74.8456 57.5308C75.1957 56.3551 76.2634 55.7131 78.0485 55.6048C79.8593 55.504 81.9914 55.819 84.4449 56.5496C86.8984 57.2802 88.6631 58.3621 89.7387 59.7954C90.8144 61.2287 91.0897 62.8271 90.5646 64.5905C89.6437 67.683 87.6069 69.6641 84.4543 70.5338C87.2864 72.7962 88.2382 75.4864 87.3097 78.6044C86.5867 81.0324 85.1445 82.7454 82.9831 83.7434C80.8294 84.7158 78.1551 84.7264 74.9604 83.7751C72.9414 83.1738 71.1849 82.3447 69.6911 81.2878C68.2049 80.2053 67.5798 79.2679 67.8157 78.4756Z" fill="white"/>
</g>
<defs>
<filter id="filter0_d_9_106" x="16.8116" y="7.30664" width="127.235" height="128.838" filterUnits="userSpaceOnUse" color-interpolation-filters="sRGB">
<feFlood flood-opacity="0" result="BackgroundImageFix"/>
<feColorMatrix in="SourceAlpha" type="matrix" values="0 0 0 0 0 0 0 0 0 0 0 0 0 0 0 0 0 0 127 0" result="hardAlpha"/>
<feOffset dy="4"/>
<feGaussianBlur stdDeviation="2"/>
<feComposite in2="hardAlpha" operator="out"/>
<feColorMatrix type="matrix" values="0 0 0 0 0 0 0 0 0 0 0 0 0 0 0 0 0 0 0.25 0"/>
<feBlend mode="normal" in2="BackgroundImageFix" result="effect1_dropShadow_9_106"/>
<feBlend mode="normal" in="SourceGraphic" in2="effect1_dropShadow_9_106" result="shape"/>
</filter>
</defs>
</svg>
