<svg width="166" height="165" viewBox="0 0 166 165" fill="none" xmlns="http://www.w3.org/2000/svg">
<g filter="url(#filter0_d_9_87)">
<path d="M117.627 129.008C8.23507 138.186 -20.2956 41.9626 58.5727 44.5971C64.3964 -9.99181 161.701 -3.41746 117.627 129.008Z" fill="#FFB3C6"/>
<path d="M58.5734 44.596C-20.2949 41.9616 3.57866 138.576 112.97 129.397C120.072 108.061 121.841 67.2769 121.841 67.2769C120.652 14.3446 64.6931 -3.13772 58.5734 44.596Z" fill="#FFCCDB"/>
<path d="M63.8418 77.0675C63.8659 76.8228 63.9981 76.6164 64.2385 76.4483C64.4789 76.2801 64.9049 76.1448 65.5166 76.0423C66.1502 75.9245 66.7466 75.9629 67.3058 76.1574C67.8868 76.3367 68.2462 76.5247 68.3837 76.7214C68.506 76.8962 68.5475 77.095 68.5081 77.3178L67.0238 89.2913L78.5809 91.5063C78.8037 91.5457 78.9839 91.6637 79.1215 91.8603C79.2438 92.0351 79.2972 92.4371 79.2818 93.0663C79.251 93.6736 79.0826 94.247 78.7766 94.7865C78.4554 95.3042 78.1746 95.6471 77.9342 95.8153C77.7157 95.9681 77.4765 96.0216 77.2165 95.9756L63.7754 92.8819C63.2555 92.7901 62.9114 92.6239 62.7433 92.3836C62.5751 92.1432 62.5239 91.8374 62.5895 91.466L63.8418 77.0675ZM83.6923 90.7617C83.2643 90.1499 82.9357 89.3546 82.7066 88.3759C82.4622 87.3752 82.3215 86.5461 82.2845 85.8886C82.2322 85.2091 82.228 84.8541 82.2717 84.8236C84.074 84.7017 85.6744 84.1516 87.0728 83.1733C87.9468 82.5618 88.5237 81.8978 88.8036 81.1813C89.1052 80.4496 89.0421 79.7778 88.614 79.166C88.1707 78.5323 87.6366 78.3039 87.0118 78.4807C86.4088 78.6422 85.549 79.0647 84.4325 79.7482L83.2526 80.5736C82.9904 80.7571 82.5175 80.616 81.8338 80.1505C81.1567 79.6479 80.6041 79.0907 80.1761 78.4789C79.4577 77.4519 79.3967 76.7135 79.9932 76.2636L80.9208 75.5659C81.5107 75.1531 82.0079 74.5612 82.4122 73.7902C82.8232 72.982 82.8452 72.3157 82.4783 71.7913C81.8363 70.8736 80.6959 70.9879 79.0571 72.1344C77.8335 72.9905 76.8217 74.0563 76.0218 75.3319C73.8003 74.2499 72.3457 73.2173 71.6578 72.2341C70.9546 71.229 71.1155 69.9936 72.1405 68.528C73.1873 67.0471 74.7595 65.5729 76.8571 64.1054C78.9547 62.6379 80.8992 61.9284 82.6906 61.9769C84.482 62.0255 85.9051 62.8036 86.9598 64.3112C88.8095 66.9551 89.0949 69.7821 87.8161 72.7921C91.3489 71.9804 94.0477 72.9074 95.9127 75.5731C97.3649 77.6489 97.81 79.8435 97.2479 82.1568C96.6706 84.4483 95.0163 86.5495 92.285 88.4603C90.5588 89.668 88.8175 90.5282 87.0609 91.0412C85.289 91.5322 84.1662 91.4391 83.6923 90.7617Z" fill="white"/>
</g>
<defs>
<filter id="filter0_d_9_87" x="8.14265" y="12.3978" width="124.904" height="125.614" filterUnits="userSpaceOnUse" color-interpolation-filters="sRGB">
<feFlood flood-opacity="0" result="BackgroundImageFix"/>
<feColorMatrix in="SourceAlpha" type="matrix" values="0 0 0 0 0 0 0 0 0 0 0 0 0 0 0 0 0 0 127 0" result="hardAlpha"/>
<feOffset dy="4"/>
<feGaussianBlur stdDeviation="2"/>
<feComposite in2="hardAlpha" operator="out"/>
<feColorMatrix type="matrix" values="0 0 0 0 0 0 0 0 0 0 0 0 0 0 0 0 0 0 0.25 0"/>
<feBlend mode="normal" in2="BackgroundImageFix" result="effect1_dropShadow_9_87"/>
<feBlend mode="normal" in="SourceGraphic" in2="effect1_dropShadow_9_87" result="shape"/>
</filter>
</defs>
</svg>
