<svg width="249" height="240" viewBox="0 0 249 240" fill="none" xmlns="http://www.w3.org/2000/svg">
<g filter="url(#filter0_d_7_519)">
<path d="M127.581 231.107C-60.9892 121.441 2.16614 -67.7332 127.581 26.397C199.247 -55.8527 350.193 65.6939 127.581 231.107Z" fill="#B9164A"/>
<path d="M127.583 26.3973C2.16823 -67.7329 -69.0151 116.772 119.556 226.439C155.423 199.788 204.762 135.397 204.762 135.397C263.122 47.856 191.922 -44.3535 127.583 26.3973Z" fill="#E22E67"/>
<path d="M110.896 99.0194C110.896 99.2061 109.629 99.2994 107.096 99.2994C104.589 99.2994 103.336 99.2194 103.336 99.0594V91.8594C103.336 91.6194 104.589 91.4994 107.096 91.4994C109.629 91.4994 110.896 91.5661 110.896 91.6994V99.0194ZM110.896 86.1794C110.896 86.3661 109.629 86.4594 107.096 86.4594C104.589 86.4594 103.336 86.3794 103.336 86.2194V79.0194C103.336 78.7794 104.589 78.6594 107.096 78.6594C109.629 78.6594 110.896 78.7261 110.896 78.8594V86.1794ZM122.069 71.8594C124.603 76.4994 125.869 81.2327 125.869 86.0594C125.869 90.8861 124.656 95.7527 122.229 100.659C121.829 101.433 121.163 101.819 120.229 101.819C119.669 101.819 118.976 101.633 118.149 101.259C116.923 100.699 116.176 100.286 115.909 100.019C118.496 95.5927 119.803 91.0727 119.829 86.4594C119.829 84.0594 119.509 81.8327 118.869 79.7794C118.256 77.7261 117.309 75.2861 116.029 72.4594C116.029 72.4061 116.469 72.1927 117.349 71.8194C118.603 71.2861 119.603 71.0194 120.349 71.0194C121.096 71.0194 121.669 71.2994 122.069 71.8594Z" fill="white"/>
</g>
<defs>
<filter id="filter0_d_7_519" x="0" y="0" width="248.445" height="239.107" filterUnits="userSpaceOnUse" color-interpolation-filters="sRGB">
<feFlood flood-opacity="0" result="BackgroundImageFix"/>
<feColorMatrix in="SourceAlpha" type="matrix" values="0 0 0 0 0 0 0 0 0 0 0 0 0 0 0 0 0 0 127 0" result="hardAlpha"/>
<feOffset dy="4"/>
<feGaussianBlur stdDeviation="2"/>
<feComposite in2="hardAlpha" operator="out"/>
<feColorMatrix type="matrix" values="0 0 0 0 0 0 0 0 0 0 0 0 0 0 0 0 0 0 0.25 0"/>
<feBlend mode="normal" in2="BackgroundImageFix" result="effect1_dropShadow_7_519"/>
<feBlend mode="normal" in="SourceGraphic" in2="effect1_dropShadow_7_519" result="shape"/>
</filter>
</defs>
</svg>
