<svg width="111" height="107" viewBox="0 0 111 107" fill="none" xmlns="http://www.w3.org/2000/svg">
<g filter="url(#filter0_d_7_202)">
<path d="M56.9389 99C-23.8396 52.022 3.21443 -29.0151 56.9389 11.3077C87.6386 -23.9258 152.3 28.1415 56.9389 99Z" fill="#B9164A"/>
<path d="M56.9398 11.3077C3.21532 -29.0151 -27.2777 50.0219 53.5009 97C68.8653 85.5833 90.0009 58 90.0009 58C115.001 20.5 84.5009 -19 56.9398 11.3077Z" fill="#E22E67"/>
<path d="M23.6416 31.9161C23.6416 31.6494 24.3616 31.5161 25.8016 31.5161C27.2549 31.5161 27.9816 31.6494 27.9816 31.9161V41.0961C27.9816 42.4561 27.4949 43.5694 26.5216 44.4361C25.5482 45.2894 24.2016 45.7161 22.4816 45.7161C20.7749 45.7161 19.3816 45.2761 18.3016 44.3961C17.2349 43.5028 16.7016 42.3028 16.7016 40.7961L16.7016 31.9361C16.7016 31.6694 17.4216 31.5361 18.8616 31.5361C20.3149 31.5361 21.0416 31.6694 21.0416 31.9361L21.0416 40.9561C21.0416 41.2228 21.1816 41.4361 21.4616 41.5961C21.7549 41.7561 22.0616 41.8361 22.3816 41.8361C22.7016 41.8361 22.9882 41.7628 23.2416 41.6161C23.5082 41.4694 23.6416 41.2494 23.6416 40.9561L23.6416 31.9161ZM33.4802 45.2361C33.4802 45.4494 32.8468 45.5561 31.5802 45.5561C30.3002 45.5561 29.6602 45.4561 29.6602 45.2561L29.6602 32.2161C29.6602 31.7494 29.9068 31.5161 30.4002 31.5161H34.2202C37.7268 31.5161 39.4802 32.8828 39.4802 35.6161C39.4802 36.4428 39.3202 37.1961 39.0002 37.8761C38.6802 38.5428 38.2268 39.0761 37.6402 39.4761L40.1602 43.6761C40.0535 43.9961 39.7068 44.3628 39.1202 44.7761C38.3202 45.3494 37.6602 45.6361 37.1402 45.6361C36.6202 45.6361 36.2335 45.4494 35.9802 45.0761L34.1002 40.6961H33.4802V45.2361ZM33.4802 35.0561V38.0561H33.5802C34.8468 38.0561 35.4802 37.5294 35.4802 36.4761C35.4802 35.9961 35.3535 35.6428 35.1002 35.4161C34.8602 35.1761 34.4602 35.0561 33.9002 35.0561H33.4802ZM50.9466 31.3361C51.9199 31.3361 52.7732 31.4761 53.5066 31.7561C54.2532 32.0228 54.6266 32.3894 54.6266 32.8561C54.6266 33.3228 54.4466 33.9028 54.0866 34.5961C53.7399 35.2761 53.4466 35.6161 53.2066 35.6161C53.1399 35.6161 53.0599 35.5828 52.9666 35.5161C52.8866 35.4361 52.6866 35.3561 52.3666 35.2761C52.0599 35.1828 51.7932 35.1361 51.5666 35.1361C50.7932 35.1361 50.1666 35.4094 49.6866 35.9561C49.2199 36.5028 48.9866 37.3428 48.9866 38.4761C48.9866 39.5961 49.2266 40.4294 49.7066 40.9761C50.1999 41.5228 50.8199 41.7961 51.5666 41.7961C51.8732 41.7961 52.2132 41.7561 52.5866 41.6761C52.9732 41.5828 53.2466 41.4561 53.4066 41.2961C53.4332 41.2694 53.4866 41.2561 53.5666 41.2561C53.6466 41.2561 53.7932 41.4094 54.0066 41.7161C54.2332 42.0094 54.4399 42.4028 54.6266 42.8961C54.8132 43.3761 54.9066 43.7494 54.9066 44.0161C54.9066 44.5361 54.5066 44.9494 53.7066 45.2561C52.9066 45.5628 51.9599 45.7161 50.8666 45.7161C49.1066 45.7161 47.6599 45.0961 46.5266 43.8561C45.3932 42.6161 44.8266 40.8694 44.8266 38.6161C44.8266 36.3494 45.4066 34.5694 46.5666 33.2761C47.7399 31.9828 49.1999 31.3361 50.9466 31.3361ZM62.9775 31.9161C62.9775 31.6494 63.6975 31.5161 65.1375 31.5161C66.5908 31.5161 67.3175 31.6494 67.3175 31.9161V41.0961C67.3175 42.4561 66.8308 43.5694 65.8575 44.4361C64.8842 45.2894 63.5375 45.7161 61.8175 45.7161C60.1108 45.7161 58.7175 45.2761 57.6375 44.3961C56.5708 43.5028 56.0375 42.3028 56.0375 40.7961V31.9361C56.0375 31.6694 56.7575 31.5361 58.1975 31.5361C59.6508 31.5361 60.3775 31.6694 60.3775 31.9361V40.9561C60.3775 41.2228 60.5175 41.4361 60.7975 41.5961C61.0908 41.7561 61.3975 41.8361 61.7175 41.8361C62.0375 41.8361 62.3242 41.7628 62.5775 41.6161C62.8442 41.4694 62.9775 41.2494 62.9775 40.9561V31.9161ZM75.0161 45.1961C75.0161 45.4628 74.3561 45.5961 73.0361 45.5961C71.7161 45.5961 71.0561 45.4628 71.0561 45.1961V35.1561H68.6561C68.4294 35.1561 68.2694 34.8494 68.1761 34.2361C68.1361 33.9428 68.1161 33.6428 68.1161 33.3361C68.1161 33.0294 68.1361 32.7294 68.1761 32.4361C68.2694 31.8228 68.4294 31.5161 68.6561 31.5161L77.3561 31.5161C77.5828 31.5161 77.7428 31.8228 77.8361 32.4361C77.8761 32.7294 77.8961 33.0294 77.8961 33.3361C77.8961 33.6428 77.8761 33.9428 77.8361 34.2361C77.7428 34.8494 77.5828 35.1561 77.3561 35.1561H75.0161V45.1961ZM85.5352 37.0761C85.7885 37.0761 85.9152 37.5428 85.9152 38.4761C85.9152 38.7561 85.8818 39.0894 85.8152 39.4761C85.7618 39.8494 85.6552 40.0361 85.4952 40.0361H82.9552V42.0361H86.6352C86.8618 42.0361 87.0152 42.3294 87.0952 42.9161C87.1352 43.1694 87.1552 43.4428 87.1552 43.7361C87.1552 44.0161 87.1152 44.3828 87.0352 44.8361C86.9552 45.2894 86.8218 45.5161 86.6352 45.5161H79.7952C79.2885 45.5161 79.0352 45.3094 79.0352 44.8961V32.0361C79.0352 31.6894 79.1885 31.5161 79.4952 31.5161H86.6552C86.9352 31.5161 87.0752 32.1094 87.0752 33.2961C87.0752 34.4694 86.9352 35.0561 86.6552 35.0561H82.9552V37.0761H85.5352Z" fill="white"/>
</g>
<defs>
<filter id="filter0_d_7_202" x="0" y="0" width="111" height="107" filterUnits="userSpaceOnUse" color-interpolation-filters="sRGB">
<feFlood flood-opacity="0" result="BackgroundImageFix"/>
<feColorMatrix in="SourceAlpha" type="matrix" values="0 0 0 0 0 0 0 0 0 0 0 0 0 0 0 0 0 0 127 0" result="hardAlpha"/>
<feOffset dy="4"/>
<feGaussianBlur stdDeviation="2"/>
<feComposite in2="hardAlpha" operator="out"/>
<feColorMatrix type="matrix" values="0 0 0 0 0 0 0 0 0 0 0 0 0 0 0 0 0 0 0.25 0"/>
<feBlend mode="normal" in2="BackgroundImageFix" result="effect1_dropShadow_7_202"/>
<feBlend mode="normal" in="SourceGraphic" in2="effect1_dropShadow_7_202" result="shape"/>
</filter>
</defs>
</svg>
