<svg width="111" height="107" viewBox="0 0 111 107" fill="none" xmlns="http://www.w3.org/2000/svg">
<g filter="url(#filter0_d_7_198)">
<path d="M56.9389 99C-23.8396 52.022 3.21443 -29.0151 56.9389 11.3077C87.6386 -23.9258 152.3 28.1415 56.9389 99Z" fill="#FFB3C6"/>
<path d="M56.9398 11.3077C3.21532 -29.0151 -27.2777 50.0219 53.5009 97C68.8653 85.5833 90.0009 58 90.0009 58C115.001 20.5 84.5009 -19 56.9398 11.3077Z" fill="#FFCCDB"/>
<path d="M32.8419 32.0561C33.0019 31.6561 33.8352 31.4561 35.3419 31.4561C35.7285 31.4561 36.2019 31.4894 36.7619 31.5561C37.3352 31.6094 37.6219 31.6628 37.6219 31.7161L34.2219 38.6361L37.7419 45.2561C37.7819 45.3228 37.4952 45.3894 36.8819 45.4561C36.2685 45.5094 35.7485 45.5361 35.3219 45.5361C33.6285 45.5361 32.7019 45.3094 32.5419 44.8561L31.0419 41.0361L29.6819 44.9761C29.5485 45.3494 28.6952 45.5361 27.1219 45.5361C26.7352 45.5361 26.2552 45.5094 25.6819 45.4561C25.1085 45.4028 24.8485 45.3294 24.9019 45.2361L28.0219 38.3161L24.7819 31.7161C24.7419 31.6494 25.0152 31.5894 25.6019 31.5361C26.2019 31.4694 26.7085 31.4361 27.1219 31.4361C28.8019 31.4361 29.7219 31.6761 29.8819 32.1561L31.2619 35.5161L32.8419 32.0561ZM45.0142 45.7161C43.1476 45.7161 41.6209 45.1028 40.4342 43.8761C39.2609 42.6494 38.6742 40.8628 38.6742 38.5161C38.6742 36.1561 39.2676 34.3694 40.4542 33.1561C41.6542 31.9428 43.1942 31.3361 45.0742 31.3361C46.9676 31.3361 48.4942 31.9361 49.6542 33.1361C50.8142 34.3228 51.3942 36.1294 51.3942 38.5561C51.3942 40.9694 50.8009 42.7694 49.6142 43.9561C48.4276 45.1294 46.8942 45.7161 45.0142 45.7161ZM45.0342 35.1761C44.3942 35.1761 43.8542 35.4694 43.4142 36.0561C42.9876 36.6428 42.7742 37.4694 42.7742 38.5361C42.7742 39.5894 42.9809 40.4028 43.3942 40.9761C43.8076 41.5361 44.3476 41.8161 45.0142 41.8161C45.6942 41.8161 46.2409 41.5294 46.6542 40.9561C47.0809 40.3828 47.2942 39.5628 47.2942 38.4961C47.2942 37.4294 47.0742 36.6094 46.6342 36.0361C46.2076 35.4628 45.6742 35.1761 45.0342 35.1761ZM60.42 32.0561C60.58 31.6561 61.4133 31.4561 62.92 31.4561C63.3067 31.4561 63.78 31.4894 64.34 31.5561C64.9133 31.6094 65.2 31.6628 65.2 31.7161L61.8 38.6361L65.32 45.2561C65.36 45.3228 65.0733 45.3894 64.46 45.4561C63.8467 45.5094 63.3267 45.5361 62.9 45.5361C61.2067 45.5361 60.28 45.3094 60.12 44.8561L58.62 41.0361L57.26 44.9761C57.1267 45.3494 56.2733 45.5361 54.7 45.5361C54.3133 45.5361 53.8333 45.5094 53.26 45.4561C52.6867 45.4028 52.4267 45.3294 52.48 45.2361L55.6 38.3161L52.36 31.7161C52.32 31.6494 52.5933 31.5894 53.18 31.5361C53.78 31.4694 54.2867 31.4361 54.7 31.4361C56.38 31.4361 57.3 31.6761 57.46 32.1561L58.84 35.5161L60.42 32.0561ZM72.5923 45.7161C70.7257 45.7161 69.199 45.1028 68.0123 43.8761C66.839 42.6494 66.2523 40.8628 66.2523 38.5161C66.2523 36.1561 66.8457 34.3694 68.0323 33.1561C69.2323 31.9428 70.7723 31.3361 72.6523 31.3361C74.5457 31.3361 76.0723 31.9361 77.2323 33.1361C78.3923 34.3228 78.9723 36.1294 78.9723 38.5561C78.9723 40.9694 78.379 42.7694 77.1923 43.9561C76.0057 45.1294 74.4723 45.7161 72.5923 45.7161ZM72.6123 35.1761C71.9723 35.1761 71.4323 35.4694 70.9923 36.0561C70.5657 36.6428 70.3523 37.4694 70.3523 38.5361C70.3523 39.5894 70.559 40.4028 70.9723 40.9761C71.3857 41.5361 71.9257 41.8161 72.5923 41.8161C73.2723 41.8161 73.819 41.5294 74.2323 40.9561C74.659 40.3828 74.8723 39.5628 74.8723 38.4961C74.8723 37.4294 74.6523 36.6094 74.2123 36.0361C73.7857 35.4628 73.2523 35.1761 72.6123 35.1761Z" fill="white"/>
</g>
<defs>
<filter id="filter0_d_7_198" x="0" y="0" width="111" height="107" filterUnits="userSpaceOnUse" color-interpolation-filters="sRGB">
<feFlood flood-opacity="0" result="BackgroundImageFix"/>
<feColorMatrix in="SourceAlpha" type="matrix" values="0 0 0 0 0 0 0 0 0 0 0 0 0 0 0 0 0 0 127 0" result="hardAlpha"/>
<feOffset dy="4"/>
<feGaussianBlur stdDeviation="2"/>
<feComposite in2="hardAlpha" operator="out"/>
<feColorMatrix type="matrix" values="0 0 0 0 0 0 0 0 0 0 0 0 0 0 0 0 0 0 0.25 0"/>
<feBlend mode="normal" in2="BackgroundImageFix" result="effect1_dropShadow_7_198"/>
<feBlend mode="normal" in="SourceGraphic" in2="effect1_dropShadow_7_198" result="shape"/>
</filter>
</defs>
</svg>
