<svg width="249" height="240" viewBox="0 0 249 240" fill="none" xmlns="http://www.w3.org/2000/svg">
<g filter="url(#filter0_d_9_49)">
<path d="M127.581 231.107C-60.9892 121.441 2.16614 -67.7332 127.581 26.397C199.247 -55.8527 350.193 65.6939 127.581 231.107Z" fill="#FA5D81"/>
<path d="M127.583 26.3963C2.16823 -67.7339 -69.0151 116.771 119.556 226.438C155.423 199.787 204.762 135.396 204.762 135.396C263.122 47.855 191.922 -44.3544 127.583 26.3963Z" fill="#FB92AB"/>
<path d="M99.179 72.2194C99.5257 71.2861 101.232 70.8194 104.299 70.8194C105.072 70.8194 105.979 70.8727 107.019 70.9794C108.086 71.0861 108.579 71.2194 108.499 71.3794L100.179 88.0994V97.8594C100.179 98.3127 99.4457 98.6327 97.979 98.8194C97.2323 98.9261 96.499 98.9794 95.779 98.9794C95.059 98.9794 94.339 98.9394 93.619 98.8594C92.1523 98.6727 91.419 98.3394 91.419 97.8594V88.3394L82.819 71.4594C82.7123 71.2994 83.259 71.1527 84.459 71.0194C85.659 70.8594 86.6723 70.7794 87.499 70.7794C90.779 70.7794 92.579 71.2594 92.899 72.2194L95.819 80.3794L99.179 72.2194ZM122.868 82.0194C123.375 82.0194 123.628 82.9527 123.628 84.8194C123.628 85.3794 123.562 86.0461 123.428 86.8194C123.322 87.5661 123.108 87.9394 122.788 87.9394H117.708V91.9394H125.068C125.522 91.9394 125.828 92.5261 125.988 93.6994C126.068 94.2061 126.108 94.7527 126.108 95.3394C126.108 95.8994 126.028 96.6327 125.868 97.5394C125.708 98.4461 125.442 98.8994 125.068 98.8994H111.388C110.375 98.8994 109.868 98.4861 109.868 97.6594V71.9394C109.868 71.2461 110.175 70.8994 110.788 70.8994H125.108C125.668 70.8994 125.948 72.0861 125.948 74.4594C125.948 76.8061 125.668 77.9794 125.108 77.9794H117.708V82.0194H122.868ZM130.635 89.1394C131.142 89.5394 132.008 90.0861 133.235 90.7794C134.488 91.4727 135.675 91.8194 136.795 91.8194C137.942 91.8194 138.515 91.3794 138.515 90.4994C138.515 90.0994 138.355 89.7527 138.035 89.4594C137.715 89.1394 137.128 88.7794 136.275 88.3794C135.422 87.9794 134.782 87.6727 134.355 87.4594C133.928 87.2194 133.355 86.8461 132.635 86.3394C131.942 85.8061 131.408 85.2594 131.035 84.6994C129.968 83.1794 129.435 81.2461 129.435 78.8994C129.435 76.5527 130.302 74.5794 132.035 72.9794C133.795 71.3527 136.088 70.5394 138.915 70.5394C140.835 70.5394 142.608 70.7527 144.235 71.1794C145.862 71.5794 146.702 72.1127 146.755 72.7794C146.755 72.8594 146.755 72.9394 146.755 73.0194C146.755 73.9527 146.462 75.1394 145.875 76.5794C145.288 77.9927 144.875 78.7794 144.635 78.9394C142.928 78.0594 141.395 77.6194 140.035 77.6194C138.702 77.6194 138.035 78.0994 138.035 79.0594C138.035 79.6461 138.528 80.1661 139.515 80.6194C139.728 80.7261 140.035 80.8727 140.435 81.0594C140.835 81.2461 141.288 81.4727 141.795 81.7394C142.328 81.9794 142.888 82.2994 143.475 82.6994C144.088 83.0727 144.742 83.5794 145.435 84.2194C146.848 85.5527 147.555 87.3127 147.555 89.4994C147.555 92.3527 146.768 94.6861 145.195 96.4994C143.622 98.3127 141.195 99.2461 137.915 99.2994C136.315 99.2994 134.862 99.1661 133.555 98.8994C132.275 98.6327 131.155 98.1127 130.195 97.3394C129.235 96.5661 128.755 95.6327 128.755 94.5394C128.755 93.4461 128.955 92.3661 129.355 91.2994C129.755 90.2061 130.182 89.4861 130.635 89.1394Z" fill="white"/>
</g>
<defs>
<filter id="filter0_d_9_49" x="0" y="0" width="248.445" height="239.107" filterUnits="userSpaceOnUse" color-interpolation-filters="sRGB">
<feFlood flood-opacity="0" result="BackgroundImageFix"/>
<feColorMatrix in="SourceAlpha" type="matrix" values="0 0 0 0 0 0 0 0 0 0 0 0 0 0 0 0 0 0 127 0" result="hardAlpha"/>
<feOffset dy="4"/>
<feGaussianBlur stdDeviation="2"/>
<feComposite in2="hardAlpha" operator="out"/>
<feColorMatrix type="matrix" values="0 0 0 0 0 0 0 0 0 0 0 0 0 0 0 0 0 0 0.25 0"/>
<feBlend mode="normal" in2="BackgroundImageFix" result="effect1_dropShadow_9_49"/>
<feBlend mode="normal" in="SourceGraphic" in2="effect1_dropShadow_9_49" result="shape"/>
</filter>
</defs>
</svg>
